<svg xmlns="http://www.w3.org/2000/svg" width="524" height="363" aria-labelledby="__lottie_element_2" style="width:100%;height:100%;transform:translate3d(0,0,0);content-visibility:visible">
  <defs>
    <clipPath id="a">
      <path d="M0 0h524v363H0z"/>
    </clipPath>
    <clipPath id="b">
      <path d="M0 0h1055v757H0z"/>
    </clipPath>
    <clipPath id="d">
      <path d="M0 0h227v111H0z"/>
    </clipPath>
    <clipPath id="e">
      <path d="M0 0h164v39H0z"/>
    </clipPath>
    <linearGradient id="c" x1="-.5" x2="-.5" y1="-108.5" y2="-392.5" gradientUnits="userSpaceOnUse" spreadMethod="pad">
      <stop offset="0%" stop-color="#FCFCFC"/>
      <stop offset="50%" stop-color="#FCFCFC"/>
      <stop offset="100%" stop-color="#FCFCFC"/>
    </linearGradient>
  </defs>
  <g clip-path="url(#a)">
    <g clip-path="url(#b)" style="display:block" transform="translate(-284.5 -227)">
      <g style="display:block">
        <path fill="url(#c)" d="M-215.5-120.5c0-5.52300262 4.477005-10 10-10h412c5.522995 0 10 4.47699738 10 10v264c0 5.522995-4.477005 10-10 10h-412c-5.522995 0-10-4.477005-10-10v-264z" transform="translate(527.5 378.5)"/>
        <path fill="none" stroke="#969BAD" stroke-miterlimit="10" stroke-width=".5" d="M312 258c0-5.52300262 4.477005-10 10-10h412c5.522995 0 10 4.47699738 10 10v264c0 5.522995-4.477005 10-10 10H322c-5.522995 0-10-4.477005-10-10V258z"/>
        <path fill="none" stroke="#969BAD" stroke-miterlimit="10" stroke-width=".5" d="M312 258c0-5.52300262 4.477005-10 10-10h412c5.522995 0 10 4.47699738 10 10v264c0 5.522995-4.477005 10-10 10H322c-5.522995 0-10-4.477005-10-10V258z"/>
      </g>
      <g style="display:block">
        <path fill="#FFF" d="M326 476h404c3.31399536 0 6 2.685997 6 6v36c0 3.31399536-2.68600464 6-6 6H326c-3.31399536 0-6-2.68600464-6-6v-36c0-3.314003 2.68600464-6 6-6z"/>
        <path fill="none" stroke="#969BAD" stroke-miterlimit="10" stroke-width=".5" d="M326 476h404c3.31399536 0 6 2.685997 6 6v36c0 3.31399536-2.68600464 6-6 6H326c-3.31399536 0-6-2.68600464-6-6v-36c0-3.314003 2.68600464-6 6-6z"/>
      </g>
      <g style="display:block">
        <path fill="#1F1717" d="M411.14800262 503.22200346c0 .444.10299683.81099999.30999756 1.10299999.20700074.29199996.46900177.50999996.78600312.65199997.31599426.142.64099884.213.97200012.213.21899414 0 .39899444-.016.54199981-.047.1419983-.032.25299836-.062.33300019-.092l-.23900604-1.05399998c-.04999543.00999999-.11599732.023-.1989975.03799998-.08300019.01499999-.189003.02199996-.3180008.02199996-.17199707 0-.33499908-.02699995-.4889984-.08200002-.15399934-.05499995-.27999879-.16399991-.37799836-.32799995-.09799957-.16400003-.14700317-.41299999-.14700317-.74399996v-7.27799964h-1.17299653v7.59699965zm-1.15399932-5.7670002v.99399996h3.95800018v-.99399996h-3.95800018zM403.50099945 499.7740035c.16600037-.4289999.41100311-.76399993.73600006-1.00400018.32499695-.23999977.72599793-.36100006 1.20300293-.36100006.49699402 0 .91099548.12700033 1.24099732.38100004.33000183.25400019.57700347.5960002.74099731 1.02900028.16400147.43299961.2460022.91699982.2460022 1.45399976 0 .54400015-.08399964 1.03700018-.25099945 1.4790001-.16699982.44200002-.41600037.79400002-.7460022 1.05400001-.3299942.26-.74099731.38999999-1.23099518.38999999-.47100067 0-.86800384-.12300003-1.1930008-.37-.32500457-.24699999-.57199859-.59000004-.74100494-1.02899993-.16899871-.43900013-.25299835-.94700003-.25299835-1.52400017 0-.56999993.08200073-1.06999993.2480011-1.49899983zm-.22799683 8.181v-4.03700006h.09899903c.08599853.13899994.20899963.31399995.36799621.52399999.15900422.211.3860016.398.68099976.56199999.2950058.164.68700409.246 1.1780014.246.63600159 0 1.1989975-.162 1.68600464-.485.48699951-.323.86799622-.77999995 1.14299774-1.37199996.27500153-.592.41300202-1.29100012.41300202-2.10000014 0-.8019998-.13800049-1.4979999-.41300202-2.08800006-.27500152-.58999967-.65800476-1.046-1.14800262-1.36800003-.49099732-.32099962-1.0569992-.48199987-1.69999695-.48199987-.49700165 0-.89099884.08200025-1.18099975.24600029-.29000092.16399955-.51200104.3499999-.66600037.55699968-.15399933.20700026-.27500153.37699986-.36100006.51000023h-.13899994v-1.2130003h-1.13400269v10.50000024h1.1740036zM391.10200119 505.09100342v-4.77299977c0-.375.07999802-.7050004.24099731-.9920001.16100312-.28700018.3730011-.51100015.63700104-.67300033.2630005-.1619997.54700089-.24399996.8520012-.24399996.44400024 0 .8069992.13300037 1.0890007.4000001.28199767.2670002.42300033.61800002.42300033 1.05200004v5.23000002h1.19299698v-4.97200012c0-.49399996.14699936-.90199995.44200134-1.2249999.29500199-.32299996.71100235-.48500014 1.24799729-.48500014.41799926 0 .78100585.12100029 1.08900451.3630004.30799866.24199962.46199799.64499997.46199799 1.2079997v5.11100006h1.1740036v-5.11100006c0-.89799977-.21800232-1.55999995-.65200043-1.98600006-.43400574-.42599965-.9920044-.63899994-1.67500305-.63899994-.54699707 0-1.01599884.1170001-1.40699768.35099983-.39100266.2340002-.68400192.54800033-.88000107.94200039h-.07900238c-.18899918-.408-.45199966-.72500038-.7879982-.95200014-.33600235-.22700024-.75699997-.34100008-1.26100159-.34100008-.49699783 0-.92200088.11399984-1.27700042.34100008-.35499955.22699976-.61199951.54400015-.77099991.95200014h-.09999848v-1.19300032h-1.13299942v7.63600016h1.17300034zM383.38600159 503.79300344c-.33800125-.268-.58800125-.62100005-.75-1.05900013-.16200257-.43799997-.2440033-.91099978-.2440033-1.421 0-.51.08200073-.98599983.2440033-1.42699982.16199875-.44099998.41199875-.79699993.75-1.06900024.33799743-.27199984.76899719-.408 1.29299926-.408.52399826 0 .95499802.13600016 1.29299927.408.33800125.27200031.58800125.62800026.75 1.06900024.16199875.44099999.24399948.91699982.24399948 1.42699981 0 .51000023-.08200073.98300004-.24399948 1.421-.16199875.43800009-.41199875.79100013-.75 1.05900014-.33800125.268-.769001.403-1.29299927.403-.52400207 0-.95500183-.135-1.29299926-.403zm3.10499954.96499997c.5189972-.328.92300033-.787 1.21299744-1.37700003.29000091-.58999991.43500137-1.27900004.43500137-2.06800008 0-.79499984-.14500046-1.49099994-.43500137-2.08399987-.2899971-.59299994-.69400025-1.0539999-1.21299744-1.38199997-.519001-.32800007-1.1230011-.4920001-1.81200028-.4920001-.68899917 0-1.29299926.16400003-1.81200027.4920001-.519001.32800007-.92300034.78900003-1.21300125 1.38199997-.29000092.59299993-.43499756 1.28900003-.43499756 2.08399987 0 .78900004.14499664 1.47800017.43499756 2.06800008.29000091.59000003.69400024 1.04900002 1.21300125 1.37700003.519001.328 1.1230011.492 1.81200027.492.68899918 0 1.29299927-.164 1.81200028-.492zM377.77799988 505.09100342v-4.83199978c0-.34500027.08399963-.65300036.25099945-.92300034.16699982-.26999998.39699936-.48199987.68700027-.63599968.29000092-.15400028.61999894-.23100042.99100113-.23100042.15599823 0 .30400086.01000023.4449997.03200007.14099884.0220003.23099899.03700017.2709999.04699993v-1.19299984c-.06600189-.00699997-.16400146-.01200009-.29299926-.01499987-.12900162-.00300026-.23699951-.00500011-.32300186-.00500011-.45700074 0-.86800003.11800003-1.2329979.35300016-.36500168.23499966-.61700058.54199982-.75600052.92000008h-.07900238v-1.15300036h-1.13399887v7.63600016h1.17300034zM369.47600174 499.7740035c.16599655-.4289999.4109993-.76399993.73600006-1.00400018.32499695-.23999977.72599793-.36100006 1.20299912-.36100006.49699783 0 .90999984.12700033 1.23999786.38100004.33000183.25400019.57699966.5960002.74100113 1.02900028.16400146.43299961.24599838.91699982.24599838 1.45399976 0 .54400015-.08399963 1.03700018-.25099945 1.4790001-.16699982.44200002-.41600037.79400002-.74599838 1.05400001-.33000183.26-.74000168.38999999-1.22999954.38999999-.47100068 0-.86800003-.12300003-1.1930008-.37-.32500076-.24699999-.5719986-.59000004-.74100113-1.02899993-.16899872-.43900013-.2539978-.94700003-.2539978-1.52400017 0-.56999993.08300018-1.06999993.24900055-1.49899983zm-.2290001 8.181v-4.03700006h.09999848c.08599854.13899994.20800019.31399995.36700058.52399999.1590004.211.38700104.398.6819992.56199999.295002.164.68700028.246 1.17800141.246.63599777 0 1.19799805-.162 1.68499756-.485.48699951-.323.86899948-.77999995 1.144001-1.37199996.27500153-.592.41199876-1.29100012.41199876-2.10000014 0-.8019998-.13699723-1.4979999-.41199875-2.08800006-.27500153-.58999967-.6590004-1.046-1.14899826-1.36800003-.49100113-.32099962-1.05700302-.48199987-1.70000077-.48199987-.49700164 0-.89100265.08200025-1.18099975.24600029-.29000092.16399955-.51200104.3499999-.66600037.55699968-.15399933.20700026-.27400207.37699986-.3600006.51000023h-.1399994v-1.2130003h-1.13299942v10.50000024h1.17300034zM360.09900093 505.09100342v-4.83199978c0-.34500027.08399963-.65300036.25099945-.92300034.16699982-.26999998.39699936-.48199987.68700028-.63599968.289999-.15400028.61999893-.23100042.99099922-.23100042.15600014 0 .30400085.01000023.4449997.03200007.14100074.0220003.2310009.03700017.2709999.04699993v-1.19299984c-.06599998-.00699997-.16399956-.01200009-.29299927-.01499987-.1289997-.00300026-.2369995-.00500011-.32299995-.00500011-.45700073 0-.86800003.11800003-1.2329998.35300016-.36499977.23499966-.61700058.54199982-.75600052.92000008h-.07900047v-1.15300036h-1.13399887v7.63600016h1.17300033zM355.37100029 505.00900342c.41399956-.161.76199913-.386 1.04400063-.67600002.28199958-.28999996.4829998-.62699997.60199928-1.01199996l-1.13299942-.31800008c-.09900093.2650001-.24100113.4870001-.42300034.66400003-.18200111.17700005-.39900017.30900002-.64900017.39700008-.25.08799994-.53000068.13199997-.83799934.13199997-.47400093 0-.88900185-.10400003-1.24700165-.311-.3579998-.20700001-.63799858-.50999998-.83799934-.90900003-.20100021-.39899993-.3010006-.88800001-.3010006-1.46499992v-.67600011c0-.421.09200097-.81500006.27400017-1.1830001.18200112-.36800002.4430008-.6669998.78300095-.89699983.34000015-.23000002.74300003-.3460002 1.20999908-.3460002.42399979 0 .79300118.09800006 1.1060009.29400016.31299973.1960001.5550003.46199989.72599983.80000019.17099953.33799982.25600052.72199964.25600052 1.15299988H351.25v1.01499986h5.88599968v-.4979999c0-.71300006-.09399986-1.31200004-.28299904-1.79900003-.18900108-.48699999-.4430008-.87900019-.76100159-1.17600012-.31799888-.29699993-.67099952-.51099968-1.0589981-.64400005-.3880005-.1329999-.7800007-.19899988-1.1780014-.19899988-.68899918 0-1.29199982.16900015-1.80699921.50500011-.5149994.33599997-.91600037.8039999-1.20300103 1.40199995-.28699875.59800005-.4299984 1.2880001-.4299984 2.06999994 0 .78200006.14299965 1.46800017.4299984 2.0560001.28700066.58799995.69600106 1.04599995 1.22800064 1.37199996.5319996.326 1.16500092.49 1.90100098.49.5169983 0 .9829998-.08 1.39699936-.241zM347.94099998 497.85200357c-.4329996-.33100032-1.02600002-.49700021-1.78199958-.49700021-.53700066 0-1.01600075.09500026-1.43900013.28399992-.42300034.18900013-.75500012.44900036-.99900055.7800002-.24399948.33099986-.36600018.71299983-.36600018 1.14400006 0 .52699995.16400051.96499968.49000073 1.31500006.32599926.3499999.84000015.60699987 1.53899955.77299976l1.27200032.2980001c.38399982.08899998.66899967.22399998.85499954.40499997.18599987.181.27900028.40400004.27900028.66899991 0 .32800007-.1619997.60900009-.48499965.84300005-.32299996.23400003-.75800038.35000003-1.30500031.35000003-.48099995 0-.86900043-.102-1.16600037-.30799997-.29699993-.20500004-.49799919-.51400006-.60400009-.92500007l-1.11399936.278c.13599968.65000009.46000003 1.14400005.97000026 1.48200005.50999928.33799999 1.15499974.50699998 1.93400002.50699998.59299946 0 1.11399936-.099 1.56099987-.298.44699955-.199.79600048-.471 1.04600048-.81599998.25-.34499996.37599945-.73500007.37599945-1.17300003 0-.53399992-.16699982-.97000003-.5020008-1.30999995-.3349991-.34000015-.84399987-.59200024-1.52699948-.75800013l-1.13300038-.27799988c-.45099926-.11299992-.78199958-.25400019-.99399948-.42299986-.2119999-.16900015-.31900024-.39900017-.31900024-.69099998 0-.32800007.15499973-.59899998.46500015-.8130002.31000042-.21399975.69900036-.3210001 1.16600037-.3210001.3409996 0 .62099933.0550003.8399992.16400003.21900081.1090002.3920002.24900007.52000045.41599989.12800026.1670003.22500038.3380003.29100037.51400042l1.0539999-.29800034c-.18200111-.54399967-.48999977-.98199987-.92300034-1.31299973zM339.91499996 501.55100346c0 .49699998-.10899973.93899989-.32599973 1.32500004-.21700001.38599992-.52900029.68999994-.93700028.90999997-.408.21999991-.89499998.33099997-1.4619999.33099997-.5669999 0-1.05299997-.11100006-1.4590001-.33099997-.4059999-.22000003-.71799994-.52400005-.93700004-.90999997-.21899986-.38600015-.32799983-.82800006-.32799983-1.32500004v-6.6420002h-1.23300004v6.7420001c0 .6960001.16399992 1.31700015.49000001 1.8620001.32599997.54499997.78600001.97399999 1.37899995 1.28699995.59299993.313 1.2889998.47000001 2.08800006.47000001.79899978 0 1.49499988-.157 2.08799982-.47000001.59299993-.31299996 1.0539999-.74199998 1.38000011-1.28699994.32600022-.54499996.48999977-1.16600001.48999977-1.8620001v-6.74200011h-1.2329998v6.6420002z"/>
      </g>
      <path fill="#FFF" d="M198.25-11.5v23h-396.5v-23h396.5z" style="display:block" transform="matrix(.74149 0 0 1 573.9995813 500.5)"/>
      <g style="display:block">
        <path fill="#058577" d="M713.06900024 488.77600098c6.1399994 0 11.11799622 4.97799682 11.11799622 11.11799621 0 6.1399994-4.97799683 11.11799622-11.11799622 11.11799622s-11.11799621-4.97799683-11.11799621-11.11799622 4.97799682-11.11799621 11.11799621-11.11799621z"/>
        <path fill="#FFF" d="m713.5039978 494.35299683-.43499756-.43499756-.49099731.49099731-3.90100098 3.90100098c-.2709961.27100372-.2709961.71200561 0 .9830017.2709961.27100373.71099854.27100373.98199463 0l2.72200012-2.72200011v8.6040039c0 .38399506.31100464.6949997.69500733.6949997.38400268 0 .69499206-.31100464.69499206-.6949997v-8.59000397l2.70800782 2.70800019c.27099609.27100372.71099853.27100372.98199463 0 .27099609-.2709961.27099609-.71199799 0-.98300171l-3.83700562-3.83699799c-.0349884-.04399872-.07598877-.08499908-.11999512-.12000274z"/>
      </g>
      <g style="display:block">
        <path fill="none" stroke="#646B81" d="M654 438.5h3c.82800293 0 1.5.67200089 1.5 1.5v3c0 .82800293-.67199707 1.5-1.5 1.5h-3c-.82800293 0-1.5-.67199707-1.5-1.5v-3c0-.82799911.67199707-1.5 1.5-1.5zM654 447.5h3c.82800293 0 1.5.67199707 1.5 1.5v3c0 .82800293-.67199707 1.5-1.5 1.5h-3c-.82800293 0-1.5-.67199707-1.5-1.5v-3c0-.82800293.67199707-1.5 1.5-1.5zM663 438.5h3c.82800293 0 1.5.67200089 1.5 1.5v3c0 .82800293-.67199707 1.5-1.5 1.5h-3c-.82800293 0-1.5-.67199707-1.5-1.5v-3c0-.82799911.67199707-1.5 1.5-1.5z"/>
        <path fill="#646B81" d="m662.55099487 449.8160019-1.62399292.5419998c-.13700866.04499818-.13700866.23899842 0 .2839966l1.62399292.5419998c.5980072.19900513 1.06600952.66699982 1.2649994 1.2649994l.54200744 1.62400055c.04499817.13700103.23899841.13700103.28399658 0l.54200745-1.62400055c.19898987-.59799958.66699218-1.06599427 1.26499939-1.2649994l1.62399292-.5419998c.13700866-.04499818.13700866-.23899842 0-.2839966l-1.62399292-.5419998c-.5980072-.19900513-1.06600952-.66699982-1.2649994-1.2649994l-.54200744-1.62400055c-.04499817-.13700103-.23899841-.13700103-.28399658 0l-.54200745 1.62400055c-.19898987.59799958-.66699218 1.06599427-1.26499939 1.2649994z"/>
        <path fill="none" stroke="#E2E4E9" d="M650 432.5h82c1.93299866 0 3.5 1.56700134 3.5 3.5v20c0 1.93299866-1.56700134 3.5-3.5 3.5h-82c-1.93299866 0-3.5-1.56700134-3.5-3.5v-20c0-1.93299866 1.56700134-3.5 3.5-3.5z"/>
      </g>
      <g style="display:block">
        <path fill="#464B58" d="M725.99900055 444.15901375c-.3710022-.28399992-.87900162-.42600012-1.52700043-.42600012-.45999908 0-.87200165.08099985-1.23400116.24300003-.3619995.16200018-.6479988.38500023-.85699844.66900015-.20899963.28399992-.31299973.61100006-.31299973.98000002 0 .45199966.1399994.8269999.41999817 1.12699985.2800026.29999996.72000122.52099991 1.31900025.66300011l1.0909996.2559998c.33000183.07700014.57400131.19200015.7330017.34700013.1590004.15499997.23799897.34599995.23799897.57299995 0 .28100002-.13800049.523-.41500091.72300005-.27700043.19999993-.64999772.29999995-1.11899949.29999995-.41199874 0-.74499893-.088-.99900054-.26400006-.2539978-.176-.42699814-.44099998-.51799775-.79299998l-.95400238.23900008c.11600113.55699992.39300156.97999996.83100128 1.26999995.43700028.29000001.98899842.43400002 1.6570015.43400002.50799942 0 .95399857-.085 1.33799744-.25500001.38400268-.17.68200302-.404.89700317-.69900002.21399689-.29500001.3219986-.63099998.3219986-1.00599998 0-.4569999-.14300156-.8319999-.4300003-1.12300002-.28699876-.2909999-.72399903-.5079999-1.30900193-.64999986l-.97099686-.23800016c-.38600158-.09699988-.67000198-.217-.85200119-.36199998-.1819992-.14499999-.2729988-.34299994-.2729988-.59299994 0-.28100014.13199996-.51399994.3979988-.69700003.26599884-.18300008.59899903-.27400016 1-.27400016.29299927 0 .5320015.046.72000122.14000034.18799973.09399986.33599854.21299982.4449997.35599995.10899734.14299964.19199753.28999996.24900055.44099998l.90399933-.25600004c-.15600205-.46600008-.42000199-.84100008-.79100037-1.125zM716.47499847 449.34801364c-.25999832-.17799997-.38999939-.44199991-.38999939-.791 0-.25599993.06900025-.45800007.20700074-.607.13800049-.14899993.31900024-.26200009.54500198-.3369999.22599793-.07500004.4699974-.13000011.730999-.16400003.10799789-.01399994.24900054-.03200006.42399978-.05299997.17499924-.02100015.35499954-.04700017.54100037-.07700014.18600082-.02999998.35199737-.06499982.49499893-.10599995.14300155-.04099989.23600006-.08800006.27899933-.13899994v.921c0 .273-.0699997.533-.21099854.77999998-.14099884.24699997-.34799957.449-.62200165.60499995-.27399826.15600002-.6100006.23400003-1.00799942.23400003-.40100097 0-.73099899-.088-.99100113-.26600003zm1.8050003.99900003c.26399995-.114.47600175-.251.63500215-.413.1590004-.162.2729988-.31400002.3409996-.45599998h.05099869v.88599998h1.00500106v-4.3119998c0-.51999998-.08499908-.93500042-.25500106-1.24500036-.16999817-.30999994-.38499832-.54099989-.6419983-.69399977-.25699996-.15299987-.52199935-.25500011-.79600143-.3050003-.27399826-.04999971-.51699829-.07499981-.72700119-.07499981-.32999802 0-.66399765.046-1.00299835.13500023-.34000015.08899975-.65200043.24499988-.93799973.46799993-.2859993.22300005-.51399994.533-.68400192.93099976l.95500183.34100008c.11100006-.23899984.30199814-.46299982.57500077-.67299986.2729988-.21000004.64899826-.31500006 1.1289978-.31500006.46300125 0 .80900192.11600018 1.03800201.34899998.2290001.2329998.3429985.55999994.3429985.98000002v.03399992c0 .16200018-.05799865.27600002-.17300033.34100008-.11499786.06500006-.29599762.11199999-.54499817.13899994-.24900055.02699995-.5720024.06599998-.97000122.1170001-.30400085.03999996-.60499954.09299994-.90499878.15999985-.29999924.06700015-.57400131.16700005-.82099914.30000019-.24700165.13399982-.44400025.31799984-.59200287.5519998-.14799881.23399998-.22099686.53900004-.22099686.91400004 0 .426.09899902.78900004.29799652 1.08900005.19900131.29999998.46700287.528.8050003.686.33800126.158.7140007.23599999 1.12900162.23599999.38100052 0 .70399857-.056.9679985-.17zM712.3390007 450.29401367c.35499954-.138.65299988-.331.89500046-.57999997.24099731-.24900002.41399765-.53700006.51599884-.86699999l-.97200012-.273c-.08499909.227-.20600128.41699994-.36199951.569-.15600205.15199996-.34199906.26599998-.55599976.34099997-.21500015.07499998-.45400047.11299997-.71800041.11299997-.40600014 0-.76300049-.088-1.0699997-.26599997-.30700111-.17799997-.54600143-.43799996-.7180004-.77999997-.1720009-.34200001-.25699998-.76099992-.25699998-1.25500012v-.57999992c0-.36099982.07799912-.69900012.23399925-1.01400018.15600014-.31500005.38000107-.57200002.67100144-.76900005.29099846-.19699955.63699913-.296 1.0380001-.296.36399842 0 .6799984.08300018.94799996.2510004.26799965.16799974.47599983.3959999.62199974.68599987.1459999.28999996.22000122.61999989.22000122.98899984h-4.02300262v.8690002h5.04500198v-.42600012c0-.61100006-.08100128-1.12499976-.24300003-1.54299998-.16200256-.41799975-.37900162-.75299978-.65200043-1.00699997-.27300262-.25400019-.57500076-.4380002-.9070015-.55200005-.33199882-.11399984-.66899871-.171-1.00999831-.171-.59100152 0-1.10700036.14499998-1.5490017.43300009-.44199943.2880001-.78499985.68900013-1.03100014 1.20200014-.24599838.51300001-.36899948 1.10399985-.36899948 1.77399993 0 .67099976.1230011 1.2579999.36899948 1.76199984.2460003.50400007.59600068.89700002 1.05200005 1.17700005.45600128.28.99900055.419 1.63000107.419.44299888 0 .84199905-.068 1.1970005-.206zM702.5020008 449.26201367c-.28300094-.22300005-.49600028-.52400004-.63899993-.90300011-.14300156-.37899995-.21500015-.80199981-.21500015-1.26799989 0-.46000004.0699997-.87499976.21099853-1.24600005.14100075-.37099981.3520012-.66499996.63500023-.88199997.28300095-.217.63700104-.32600021 1.06299973-.32600021.4090004 0 .75300026.10300016 1.03100013.30900001.27799988.20600033.48900032.4920001.63100052.86000013.1420002.36800003.21299935.796.21299935 1.28500009 0 .49399996-.07299996.93000007-.2179985 1.306-.14500047.37600004-.3560009.66999995-.63400079.88199996-.27799987.21200002-.62000084.31800002-1.02300071.31800002-.42000008 0-.77199936-.11199999-1.0549984-.33499998zm1.9279995 1.027c.25300026-.141.44799996-.30099999.58399964-.481.13599968-.18.24200058-.33100002.31599998-.45000004h.11899948v1.00600004h.97100068v-8.72700023h-1.00499916v3.22100019h-.085001c-.0739994-.11399984-.17700004-.2579999-.30900001-.43599987s-.3220005-.3369999-.57099915-.47800016c-.24900055-.1409998-.58600044-.21099997-1.01200103-.21099997-.5510006 0-1.03800011.13800001-1.45800019.41400003-.42000007.27600003-.74799919.6659999-.98399925 1.17199994-.23600006.50600004-.3540001 1.102-.3540001 1.78900003 0 .69300008.11800004 1.29400003.3540001 1.801.23600006.50700003.56200027.89900005.97999954 1.17600003.41799927.27700001.89900017.41500002 1.44400025.41500002.42000007 0 .75699997-.07 1.01000023-.21100001zM699.11899948 442.52701378c.14100075-.1329999.21100044-.29300022.21100044-.48099995 0-.18799972-.0699997-.34800052-.21100044-.48200035-.14099884-.13299942-.30900001-.1999998-.50499916-.1999998-.19600105 0-.36400032.06700038-.50500107.1999998-.14099884.13399983-.21099853.29400063-.21099853.48200035 0 .18799973.0699997.34800005.21099853.48099995.14100075.13399982.30900002.20099974.50500107.20099974.19599915 0 .36400032-.06699992.50499916-.20099974zm-.01099968 7.8369999v-6.54500008h-1.00600052v6.54500007h1.00600052zM691.88099957 441.63701344v8.72700023h1.00500011v-8.72700023h-1.00500011zM689.0340004 441.63701344v8.72700023h1.00599956v-8.72700023h-1.00599956zM681.824 447.89201379h4.46599996v-.93700004H681.824v.93700004zm2.19899976-4.87500024h.06800032l2.6079998 7.34700012h1.10800028l-3.20499992-8.72700023h-1.09100032l-3.2039999 8.72700023h1.10799994l2.6079998-7.34700012z"/>
      </g>
      <g style="display:block">
        <path fill="#FFF" d="M326 292.25h404c3.17599487 0 5.75 2.5739975 5.75 5.75v120c0 3.17599869-2.57400513 5.75-5.75 5.75H326c-3.17599487 0-5.75-2.57400131-5.75-5.75V298c0-3.1760025 2.57400513-5.75 5.75-5.75z"/>
        <path fill="none" stroke="#CDD1DC" stroke-width=".5" d="M326 292.25h404c3.17599487 0 5.75 2.5739975 5.75 5.75v120c0 3.17599869-2.57400513 5.75-5.75 5.75H326c-3.17599487 0-5.75-2.57400131-5.75-5.75V298c0-3.1760025 2.57400513-5.75 5.75-5.75z"/>
      </g>
      <g style="display:block">
        <path fill="#151719" d="M649.25099945 320.28300095c.1439972-.0869999.25900269-.20299912.34600067-.34899903.08699799-.1459999.12999726-.3050003.12999726-.47900009 0-.26300049-.09399415-.48900032-.28199769-.67700004-.1879959-.18799973-.41400146-.2819996-.67700195-.2819996s-.48799896.09399987-.67599487.2819996c-.18800354.18799972-.28200531.41399955-.28200531.67700004 0 .26300049.09400177.48799896.2820053.67599869.18799592.18800163.4129944.28300094.67599488.28300094.1780014 0 .33900452-.04400062.48300171-.13100051zM642.95200348 318.32500076c0 .47599984.11100006.8710003.33300018 1.18300057.22200012.31299972.5019989.54500007.8409958.69799995.33899688.15299988.68700408.2290001 1.0419998.2290001.23400117 0 .42700196-.0170002.58000184-.0510006.15299988-.0339985.27199554-.06599999.35700226-.09799957l-.25600434-1.12999917c-.0530014.01099968-.12400055.02400017-.21299743.03999901-.08900452.01600075-.20200348.02400017-.34100342.02400017-.18499756 0-.35900116-.02899933-.52399445-.08799934-.16500091-.05900002-.30000305-.17500115-.4050064-.35099984-.10499573-.17600059-.15699769-.44099998-.15699769-.79600143v-7.79899979h-1.25699615v8.13899994zm-1.23600006-6.17900085v1.0660019h4.23999786v-1.0660019h-4.23999786zM637.560997 320.32800102v-5.17700004c0-.36899948.09000398-.6989994.26900483-.98799897.17900086-.28900146.42399597-.5170002.73500061-.68200111.31099701-.164999.66500092-.2479992 1.06299591-.2479992.16699982 0 .32600403.01199914.477005.03499986.15099335.02300071.24699403.03899955.2899933.04999923v-1.27799987c-.07099915-.00699997-.17499543-.01200104-.31399537-.01599884-.13800049-.00300217-.25500488-.00500107-.34700012-.00500107-.48999786 0-.9300003.12599945-1.32099915.37800216-.39099884.2519989-.66000366.57999802-.80900573.9849987h-.08599854v-1.23600196h-1.21399689v8.18200111h1.25699616zM629.29399872 318.93800163c-.36199951-.2880001-.62999726-.66600036-.80400086-1.13500023-.17399597-.46899986-.26100158-.97599983-.26100158-1.52300071 0-.54699898.08700561-1.05699921.26100158-1.52899933.1740036-.47200012.44200135-.8540001.80400086-1.14500046.36199951-.29100037.8239975-.43700027 1.38500213-.43700027.56099701 0 1.02300263.1459999 1.38500214.43700027.36199951.29100037.62999725.67300034.80399323 1.14500046.1740036.47200012.26100158.98200035.26100158 1.52899933 0 .54700088-.08699798 1.05400085-.26100158 1.52300071-.17399598.46899987-.44199372.84700013-.80399323 1.13500023-.36199951.28800011-.82400513.43099976-1.38500214.43099976-.56100463 0-1.02300262-.14299965-1.38500213-.43099976zm3.32700348 1.03299904c.55599975-.35199928.98799896-.8429985 1.29899597-1.47499847.31100464-.63199997.46600342-1.3710003.46600342-2.21600151 0-.85199929-.15499878-1.59599877-.46600342-2.23199845-.31099701-.63600158-.74299622-1.1289997-1.29899597-1.4810009-.55599976-.35200119-1.20300293-.52700042-1.94200135-.52700042-.7389984 0-1.38600158.17499923-1.94200134.52700042-.55599975.3520012-.98799896.84499932-1.29899597 1.4810009-.31100464.63599968-.46600342 1.37999916-.46600342 2.23199845 0 .84500122.15499878 1.58400154.46600342 2.2160015.310997.63199998.74299622 1.1229992 1.29899597 1.47499848.55599976.3520012 1.20300293.52799988 1.94200134.52799988.73899842 0 1.3860016-.17599869 1.94200135-.52799988zM619.71700287 314.63100052c.17799377-.45999909.43999481-.81799889.78799438-1.0759983.34799958-.25699998.77799988-.3860016 1.28900147-.3860016.53300476 0 .97599792.1360016 1.32900238.40800095.35299682.27199936.61799621.63899994.79399872 1.10199928.1760025.46300126.26300049.9829998.26300049 1.55800057 0 .58200073-.09000397 1.11100006-.2689972 1.585001-.17900085.47399901-.44600677.84999847-.7990036 1.1289997-.35299682.27899933-.79199982.41799927-1.3180008.41799927-.5039978 0-.9300003-.13100052-1.27799987-.39599991-.34799957-.26499939-.61299896-.63199997-.79399872-1.10300064-.18099975-.46999931-.27200317-1.01499939-.27200317-1.63299942 0-.61100006.08900451-1.1459999.26700592-1.6060009zm-.24500275 8.7650013v-4.32500077h.10600281c.09199524.14900017.22399902.3369999.3939972.56200028.16999816.22599983.41400146.4260006.73000335.60199928.31599426.1760006.73699951.26399994 1.26299286.26399994.68200683 0 1.28300476-.17399979 1.8050003-.51999855.52200318-.34600067.9300003-.83600044 1.2250061-1.47000122.29499818-.63399887.4430008-1.38299942.4430008-2.25 0-.85899925-.14800262-1.605999-.4430008-2.23799896-.2950058-.63199997-.70400237-1.12000084-1.23000335-1.4639988-.52600098-.34400177-1.1329956-.5170021-1.8219986-.5170021-.53299713 0-.95400238.08800125-1.26499939.26399993-.31100463.1760025-.5490036.37400055-.71400451.59600068-.16499329.22200012-.29399872.40399932-.38599396.54599952h-.14900208v-1.30000114h-1.21400451v11.2500019h1.25700378zM614.40599823 320.24000168c.44400024-.17200089.81700134-.4130001 1.1190033-.72400093.30200195-.31099892.51599884-.67199898.64399719-1.08399964l-1.21399689-.3409996c-.10700226.2840004-.25800323.5209999-.45300293.71100044-.1949997.18999863-.42700195.33199883-.6949997.4259987-.26799774.09400176-.56800079.14100074-.89800262.14100074-.5079956 0-.9529953-.11000061-1.33699798-.33200073-.38399506-.22200013-.68199921-.54699898-.89699555-.97499848-.21500397-.4280014-.32300567-.95100021-.32300567-1.56900024v-.72400093c0-.45100022.09799957-.87399864.29299926-1.26799965.1949997-.3939991.4750061-.71500015.83900452-.9619999.36399841-.24699974.79599762-.37000083 1.29699707-.37000083.45500183 0 .84899902.10500145 1.18500519.31400108.33599853.20999908.59499359.49600029.77799988.8579998.18299865.36199951.27399444.77400017.27399444 1.23600006h-5.02799988v1.0869999h6.30699921v-.53300095c0-.76299858-.10199738-1.40599823-.30400085-1.9279995-.20199585-.52199936-.47399903-.94199943-.81499482-1.26000023-.34100341-.31800079-.71900177-.54800033-1.13400268-.68999862-.41500092-.1420021-.83699799-.21300125-1.26300049-.21300125-.73899841 0-1.38399506.18099975-1.935997.54100036-.55200196.36000061-.98200227.86100006-1.28900147 1.50200081-.30699921.64099884-.46099854 1.37999916-.46099854 2.2179985 0 .83800126.15399933 1.57299996.46099854 2.20300103.3069992.62999916.7460022 1.11999893 1.31600189 1.46999931.5699997.35000038 1.24900055.52499962 2.03699493.52499962.55400086 0 1.0530014-.0869999 1.49700165-.25899887zM605.40899658 320.32800102v-5.17700004c0-.36899948.09000397-.6989994.26900482-.98799897.17900086-.28900146.42399598-.5170002.73500061-.68200111.31099701-.164999.66500092-.2479992 1.06299591-.2479992.16699982 0 .32600403.01199914.47700501.03499986.15099335.02300071.24699402.03899955.28999329.04999923v-1.27799987c-.07099915-.00699997-.17499543-.01200104-.31399537-.01599884-.13800048-.00300217-.25499725-.00500107-.34700012-.00500107-.48999786 0-.9300003.12599945-1.32099914.37800216-.39099884.2519989-.66000367.57999802-.80899811.9849987h-.08500671v-1.23600196h-1.21499634v8.18200111h1.25699615zM592.92299652 318.93800163c-.36199951-.2880001-.62999725-.66600036-.80399322-1.13500023-.1740036-.46899986-.2610016-.97599983-.2610016-1.52300071 0-.54699898.086998-1.05699921.2610016-1.52899933.17399597-.47200012.4419937-.8540001.80399322-1.14500046.36200714-.29100037.82400513-.43700027 1.38500214-.43700027.56100464 0 1.02300262.1459999 1.38500213.43700027.36199952.29100037.6309967.67300034.8050003 1.14500046.17399598.47200012.2610016.98200035.2610016 1.52899933 0 .54700088-.08700562 1.05400085-.2610016 1.52300071-.1740036.46899987-.44300078.84700013-.8050003 1.13500023-.3619995.28800011-.8239975.43099976-1.38500213.43099976-.56099701 0-1.022995-.14299965-1.38500214-.43099976zM596.25 319.97100067c.55599976-.35199928.98899841-.8429985 1.30000305-1.47499847.31099701-.63199997.46599579-1.3710003.46599579-2.21600151 0-.85199929-.15499878-1.59599877-.46599579-2.23199845-.31100464-.63600158-.7440033-1.1289997-1.30000305-1.4810009-.55599976-.35200119-1.20300293-.52700042-1.94200134-.52700042-.73899842 0-1.38500214.17499923-1.9410019.52700042-.55599594.3520012-.9889984.84499932-1.29999542 1.4810009-.31100082.63599968-.4659996 1.37999916-.4659996 2.23199845 0 .84500122.15499878 1.58400154.4659996 2.2160015.31099701.63199998.74399948 1.1229992 1.29999543 1.47499848.55599975.3520012 1.20200347.52799988 1.94100189.52799988.73899841 0 1.38600158-.17599869 1.94200134-.52799988zM586.16899872 318.32500076c0 .47599984.11100006.8710003.33300018 1.18300057.22200012.31299972.50300217.54500007.84200287.69799995.33899689.15299988.685997.2290001 1.04099655.2290001.23400116 0 .4280014-.0170002.58100128-.0510006.15299988-.0339985.27099991-.06599999.355999-.09799957l-.25499726-1.12999917c-.0530014.01099968-.12400055.02400017-.21300125.03999901-.0890007.01600075-.20199966.02400017-.3409996.02400017-.18500138 0-.36000061-.02899933-.52500153-.08799934-.1649971-.05900002-.29999923-.17500115-.40499878-.35099984-.10499954-.17600059-.1570015-.44099998-.1570015-.79600143v-7.79899979h-1.25699996v8.13899994zm-1.23600006-6.17900085v1.0660019h4.24000168v-1.0660019h-4.24000168zM576.49599838 318.32500076c0 .47599984.11100006.8710003.33300019 1.18300057.22200012.31299972.50200271.54500007.8409996.69799995.3390007.15299988.68700027.2290001 1.04200363.2290001.23399735 0 .42699814-.0170002.57999802-.0510006.15299987-.0339985.27199936-.06599999.35699844-.09799957l-.2559967-1.12999917c-.0530014.01099968-.12400055.02400017-.21300125.03999901-.0890007.01600075-.20199967.02400017-.3409996.02400017-.18500138 0-.35900117-.02899933-.52400208-.08799934-.1649971-.05900002-.29999924-.17500115-.40499878-.35099984-.10499954-.17600059-.1570015-.44099998-.1570015-.79600143v-7.79899979h-1.25699997v8.13899994zm-1.23600006-6.17900085v1.0660019H579.5v-1.0660019h-4.24000168zM568.69200134 314.19200134c.18099976-.33399963.42899704-.58799934.74300003-.76199913.31399918-.1740017.67300034-.26100158 1.0739975-.26100158.58200073 0 1.04000092.18100166 1.37400055.54100036.33399963.36000061.50099945.86200142.50099945 1.50500107v5.11299896h1.25699997v-5.1989994c0-.69600106-.11599731-1.27199936-.34700012-1.72800064-.230999-.45600129-.55399704-.79700089-.96899796-1.02299881-.41500091-.2250023-.90000152-.33800125-1.45400238-.33800125-.61800003 0-1.12199783.1269989-1.51299667.38100051-.39100266.25400162-.68200302.5890007-.87400055 1.00399971h-.1060028v-1.27900123h-1.21500016v8.18200111h1.25699997v-4.92199898c0-.47599983.09100342-.88000106.27200317-1.2140007zM560.0660019 319.05800056c-.32500268-.22199821-.48800279-.55099868-.48800279-.98799896 0-.3199997.08600045-.57299995.25800133-.75900078.17199898-.18599891.39999962-.32699966.68200112-.42099952.28199768-.09399987.58699798-.16200066.91399765-.20499993.13500213-.01799965.31200027-.039999.5300026-.06699943.2179985-.02700043.44299697-.05900002.67599868-.09600067.2329979-.03700066.43899917-.08099938.61800003-.13299942.17900085-.0510006.29599762-.10900116.34899902-.17300034v1.15099907c0 .34100151-.08800125.66500092-.26399994.97400093-.17599868.30900002-.4339981.56200028-.77700042.75699997-.3429985.1949997-.7630005.29299927-1.25999833.29299927-.50099945 0-.91300201-.11100006-1.23799896-.33300019zm2.25499725 1.24900055c.33000183-.1420002.59500122-.31500053.79400253-.5170002.1989975-.20199966.3409996-.3920002.42599869-.56999969h.06399917v1.1079998h1.25699997v-5.38999939c0-.64999962-.105999-1.16900062-.31900024-1.55599975-.21299744-.38699913-.480999-.6760006-.80199814-.86800194-.32100296-.19199753-.65299988-.31900025-.9960022-.3809967-.3429985-.06200028-.64500046-.09300232-.90799713-.09300232-.41200256 0-.83100128.05599975-1.25500107.16799926-.42399978.11199951-.81500053.30700302-1.17200088.58600235-.35700035.27899933-.6420002.66699982-.85499954 1.16399956l1.19400024.42599869c.13799858-.29799843.37799835-.57899857.71899795-.84199906.3409996-.26300048.81100083-.394001 1.41100312-.394001.57899856 0 1.01099777.1459999 1.29699707.43700027.28600311.29100037.42900085.69900131.42900085 1.22500038v.04199982c0 .20199966-.0719986.34500122-.2159996.42700005-.144001.08200073-.36999893.13899993-.68099976.17300033-.31100082.0340004-.71500015.08200073-1.2120018.14599991-.37999725.04999924-.75699997.11700058-1.13199997.20000076-.37499809.08299828-.71699905.20799828-1.02599907.375-.30900001.16699982-.5549984.39699936-.73999977.68999863-.18499946.29300117-.27700042.67399979-.27700042 1.14299965 0 .53300094.12400054.98600006.3730011 1.36100006.24900054.375.58399963.66000175 1.00699996.85700035.42300034.1970005.8919983.29600144 1.4109993.29600144.47600174 0 .87900162-.07100106 1.20899964-.21300126zM549.60700035 320.32800102l1.78899956-6.28499985h.12800026l1.789999 6.28499985h1.23600007l2.49300003-8.18200111h-1.32099915l-1.769001 6.24300194h-.08499909l-1.72599983-6.24300194h-1.34200096l-1.74699974 6.2650013h-.08600045l-1.76799965-6.2650013h-1.32099914l2.49300003 8.18200111h1.23600006zM538.50599957 309.41900253v10.9089985h1.3210001v-10.9089985h-1.3210001zM529.21599996 318.32500076c0 .47599984.11100006.8710003.33300006 1.18300057.222.31299972.5020001.54500007.84100008.69799995.339.15299988.6869998.2290001 1.04199982.2290001.23399997 0 .42700005-.0170002.58000016-.0510006.15299988-.0339985.27199984-.06599999.35699988-.09799957l-.25500012-1.12999917c-.05299997.01099968-.12399983.02400017-.21299982.03999901-.08899998.01600075-.20300007.02400017-.34100008.02400017-.18499994 0-.3599999-.02899933-.52499985-.08799934-.1650002-.05900002-.3000002-.17500115-.40499998-.35099984-.10500001-.17600059-.15700006-.44099998-.15700006-.79600143v-7.79899979h-1.25700009v8.13899994zM527.98 312.14599991v1.0660019h4.23999979v-1.0660019H527.98zM521.41200018 314.19200134c.18099976-.33399963.4289999-.58799934.74300003-.76199913.31399965-.1740017.67299986-.26100158 1.07399988-.26100158.58199978 0 1.03999996.18100166 1.37399984.54100036.3340001.36000061.50100016.86200142.50100016 1.50500107v5.11299896h1.25699985v-5.1989994c0-.69600106-.11499989-1.27199936-.34599995-1.72800064-.23100007-.45600129-.55499995-.79700089-.96999991-1.02299881-.41499997-.2250023-.9000001-.33800125-1.454-.33800125-.61800003 0-1.12200022.1269989-1.51300001.38100051-.39100027.25400162-.68100023.5890007-.87300015 1.00399971h-.10699987v-1.27900123h-1.21400023v8.18200111h1.25699997v-4.92199898c0-.47599983.09000016-.88000106.27100039-1.2140007zM516.0749998 320.24000168c.44400025-.17200089.8170004-.4130001 1.11900044-.72400093.30200005-.31099892.5159998-.67199898.64400006-1.08399964l-1.2140007-.3409996c-.1069994.2840004-.25799942.5209999-.45300007.71100044-.1949997.18999863-.4269991.33199883-.6949997.4259987-.26799965.09400176-.56799984.14100074-.89799976.14100074-.50800038 0-.95300007-.11000061-1.3369999-.33200073-.38399982-.22200013-.68200015-.54699898-.8970003-.97499848-.21500016-.4280014-.32299996-.95100021-.32299996-1.56900024v-.72400093c0-.45100022.09800052-.87399864.29300022-1.26799965.1949997-.3939991.47499943-.71500015.83899975-.9619999.36400032-.24699974.79600048-.37000083 1.29699993-.37000083.45499992 0 .84899998.10500145 1.18500042.31400108.33599949.20999908.59499931.49600029.77799988.8579998.1829996.36199951.27499962.77400017.27499962 1.23600006h-5.02899933v1.0869999h6.3069992v-.53300095c0-.76299858-.10199928-1.40599823-.3039999-1.9279995-.20199966-.52199936-.47399997-.94199943-.81499958-1.26000023-.34100055-.31800079-.71899986-.54800033-1.13399982-.68999862-.41499996-.1420021-.8369999-.21300125-1.2630005-.21300125-.73899936 0-1.38399982.18099975-1.93599986.54100036-.55200005.36000061-.98200035.86100006-1.28899956 1.50200081-.30700111.64099884-.46100044 1.37999916-.46100044 2.2179985 0 .83800126.15399933 1.57299996.46100044 2.20300103.3069992.62999916.7460003 1.11999893 1.31599999 1.46999931.5699997.35000038 1.2489996.52499962 2.0369997.52499962.5539999 0 1.0529995-.0869999 1.49699974-.25899887zM506.33200073 318.32500076c0 .47599984.11100006.8710003.33300019 1.18300057.22199821.31299972.50299835.54500007.84199905.69799995.3390007.15299988.68600082.2290001 1.04100037.2290001.23399925 0 .4279995-.0170002.58099937-.0510006.15299988-.0339985.27199936-.06599999.35700035-.09799957l-.25600052-1.12999917c-.0529995.01099968-.12399864.02400017-.21299934.03999901-.0890007.01600075-.20300102.02400017-.3409996.02400017-.18500138 0-.36000062-.02899933-.52500153-.08799934-.164999-.05900002-.29899979-.17500115-.40399933-.35099984-.10499954-.17600059-.15799904-.44099998-.15799904-.79600143v-7.79899979h-1.25699997v8.13899994zm-1.2350006-6.17900085v1.0660019h4.23999976v-1.0660019h-4.23999977zM498.52899933 314.19200134c.18099975-.33399963.42900085-.58799934.74300003-.76199913.31400108-.1740017.67200088-.26100158 1.07299995-.26100158.58200074 0 1.04000092.18100166 1.37400055.54100036.33399964.36000061.50099945.86200142.50099945 1.50500107v5.11299896h1.25699997v-5.1989994c0-.69600106-.11499977-1.27199936-.34599876-1.72800064-.2310009-.45600129-.55400086-.79700089-.96899986-1.02299881-.41500092-.2250023-.90100098-.33800125-1.45499993-.33800125-.61800003 0-1.12100029.1269989-1.51200104.38100051-.39099884.25400162-.6819992.5890007-.87400054 1.00399971h-.10699845v-1.27900123H497v8.18200111h1.25699997v-4.92199898c0-.47599983.0909996-.88000106.27199936-1.2140007zM489.99000168 318.93800163c-.36200333-.2880001-.63000107-.66600036-.80400086-1.13500023-.17399978-.46899986-.26100158-.97599983-.26100158-1.52300071 0-.54699898.0870018-1.05699921.26100158-1.52899933.17399979-.47200012.44199753-.8540001.80400086-1.14500046.36199951-.29100037.8239975-.43700027 1.38499832-.43700027s1.02299881.1459999 1.38499832.43700027c.36200333.29100037.63000107.67300034.80400086 1.14500046.17399978.47200012.26100158.98200035.26100158 1.52899933 0 .54700088-.0870018 1.05400085-.26100158 1.52300071-.17399979.46899987-.44199753.84700013-.80400086 1.13500023-.36199951.28800011-.8239975.43099976-1.38499832.43099976s-1.02299881-.14299965-1.38499832-.43099976zm3.32699966 1.03299904c.55599976-.35199928.98799897-.8429985 1.29899979-1.47499847.310997-.63199997.4659996-1.3710003.4659996-2.21600151 0-.85199929-.1550026-1.59599877-.4659996-2.23199845-.31100082-.63600158-.74300003-1.1289997-1.29899979-1.4810009-.55599975-.35200119-1.20300293-.52700042-1.94200134-.52700042s-1.38600159.17499923-1.94200134.52700042c-.55599976.3520012-.98799897.84499932-1.29899979 1.4810009-.310997.63599968-.4659996 1.37999916-.4659996 2.23199845 0 .84500122.1550026 1.58400154.4659996 2.2160015.31100082.63199998.74300003 1.1229992 1.29899979 1.47499848.55599975.3520012 1.20300293.52799988 1.94200134.52799988s1.38600159-.17599869 1.94200134-.52799988zM484.5909996 320.16000175c.45600129-.22500038.82400132-.53100013 1.10300064-.91600036.27899933-.38500023.45399857-.81900025.52500153-1.30200005h-1.25699997c-.07800293.29800034-.2100029.55400086-.39500046.7670002-.18500137.21299935-.40999984.37599945-.6760025.48999977-.26599884.11400032-.56299973.17000008-.88999939.17000008-.49699783 0-.92900085-.12899971-1.29700088-.38800049-.36800003-.25899887-.65099717-.6229992-.85199738-1.09199905-.20100021-.46899987-.3010025-1.02000046-.3010025-1.65200043 0-.61800003.10200119-1.15600014.30599975-1.61599922.20400238-.460001.49000168-.81700135.85800171-1.07100106.36800003-.2539997.79600144-.38100051 1.2859993-.38100051.55400086 0 .99499893.14500045 1.32400131.43400001.32799912.28900147.54100037.6210003.63700104.99400139h1.25699997c-.07100296-.51099968-.25400162-.95899963-.5490036-1.34300041-.29499817-.38399887-.67199707-.68099976-1.13399887-.89400101-.46199799-.21299744-.980999-.3199997-1.55599976-.3199997-.73899841 0-1.38399887.18099976-1.93600082.54100037-.55199814.36000061-.98199845.85899925-1.28899765 1.4960003-.3069992.63699912-.46100235 1.37199973-.46100235 2.2029991 0 .81700135.14900207 1.54300118.4470024 2.17900086.29800034.63599968.72499848 1.13400078 1.27899934 1.4960003.55400085.3619995 1.2140007.5439987 1.980999.5439987.60400008 0 1.13399886-.1139984 1.59000014-.33899879zM471.65000153 320.24000168c.44400024-.17200089.81699752-.4130001 1.11899948-.72400093.30199814-.31099892.51599884-.67199898.64399719-1.08399964l-1.21399689-.3409996c-.10700226.2840004-.25799942.5209999-.45300293.71100044-.1949997.18999863-.42699814.33199883-.6949997.4259987-.26799773.09400176-.56799697.14100074-.8979988.14100074-.50799942 0-.95299912-.11000061-1.33699799-.33200073-.38400268-.22200013-.68200302-.54699898-.89700317-.97499848-.21500015-.4280014-.3219986-.95100021-.3219986-1.56900024v-.72400093c0-.45100022.09799957-.87399864.29299927-1.26799965.1949997-.3939991.47500229-.71500015.8390007-.9619999.36399841-.24699974.79600144-.37000083 1.29700089-.37000083.45499801 0 .84899902.10500145 1.18499756.31400108.33600235.20999908.59400177.49600029.77700042.8579998.18300247.36199951.27500153.77400017.27500153 1.23600006h-5.02899933v1.0869999h6.3069992v-.53300095c0-.76299858-.10100173-1.40599823-.3030014-1.9279995-.20199966-.52199936-.47399902-.94199943-.81499862-1.26000023-.3409996-.31800079-.72000123-.54800033-1.13500214-.68999862-.4149971-.1420021-.83599854-.21300125-1.26199722-.21300125-.73900223 0-1.38500214.18099975-1.93700028.54100036-.55200195.36000061-.98200226.86100006-1.28900146 1.50200081-.3069992.64099884-.46099854 1.37999916-.46099854 2.2179985 0 .83800126.15399933 1.57299996.46099854 2.20300103.3069992.62999916.7460022 1.11999893 1.31600189 1.46999931.5699997.35000038 1.24900055.52499962 2.03699875.52499962.55400085 0 1.0530014-.0869999 1.49700165-.25899887zM463.9960022 312.1459999l-2.25900269 6.52000237h-.08499908l-2.25900269-6.52000236h-1.36299896l3.02500153 8.18200111h1.27899932l3.02500153-8.18200111h-1.36299896zM456.3809967 310.5320015c.1760025-.16699982.26399994-.36700058.26399994-.60100174 0-.23399735-.08799743-.43499756-.26399994-.60199738-.17599487-.16699982-.38599395-.25099945-.6309967-.25099945s-.45500183.08399963-.6309967.25099945c-.1760025.16699982-.26399994.36800003-.26399994.60199738 0 .23400116.08799743.43400192.26399994.60100174.17599487.16699981.38599395.25099945.6309967.25099945s.45500183-.08399964.6309967-.25099945zm-.01300048 9.79599952v-8.18200111h-1.25699616v8.18200111h1.25699616zM452.07700348 312.57300186c-.46300507-.35499954-1.09900665-.53300094-1.90900421-.53300094-.57499695 0-1.08899689.10200119-1.54199982.30400085-.45300293.20199966-.80999756.480999-1.07099914.83600044-.2610016.35499954-.3919983.76299858-.3919983 1.22499848 0 .56500053.17499543 1.0340004.52500153 1.4090004.34999847.375.8999939.64999961 1.64899445.82800102l1.36299896.3199997c.41200256.09599875.71700287.23999976.91600036.434.19900513.19400025.2990036.43199921.2990036.7159996 0 .3519993-.1740036.65299989-.52000427.90299989-.34599304.25-.81199646.37599945-1.397995.37599945-.51499938 0-.93099975-.1099987-1.24900054-.32999993-.3180008-.2199993-.53300476-.55099868-.64700318-.99099922l-1.19300079.29800034c.14600372.69599914.49100495 1.22500038 1.03800202 1.5869999.54699707.3619995 1.2369995.5439987 2.0719986.5439987.63600158 0 1.19400024-.10699843 1.67300414-.31999969.47899628-.21299934.85299683-.5039997 1.12099457-.87299919.26800537-.36899948.40200043-.78899955.40200043-1.25799942 0-.5720005-.17899323-1.03900146-.53799439-1.40299987-.35900116-.36400033-.90299988-.63400078-1.63500213-.81200028l-1.2139969-.29899979c-.4830017-.12100029-.8390045-.27200126-1.06600188-.45300102-.227005-.18099975-.34100342-.42700004-.34100342-.73999977 0-.35199928.16699982-.6420002.49900055-.87100029.33200073-.2290001.7480011-.34300041 1.24900055-.34300041.36599731 0 .66600036.05800056.90000152.17500114.23400116.11699868.41899872.26599884.55599976.4449997.13700104.17899895.24099731.36299896.31199646.5510006l1.12900543-.31900025c-.1949997-.58200073-.52500152-1.0510006-.98799896-1.40600014zM440.01999664 314.19200134c.18099976-.33399963.42900086-.58799934.74300385-.76199913.31400299-.1740017.67299652-.26100158 1.0739975-.26100158.58200073 0 1.04000091.18100166 1.37400055.54100036.33399963.36000061.50099945.86200142.50099945 1.50500107v5.11299896h1.25700378v-5.1989994c0-.69600106-.1150055-1.27199936-.34600067-1.72800064-.2310028-.45600129-.5550003-.79700089-.97000122-1.02299881-.41500092-.2250023-.90000153-.33800125-1.45400238-.33800125-.61799622 0-1.12199402.1269989-1.5130005.38100051-.39099883.25400162-.6819992.5890007-.87400054 1.00399971h-.10599518v-1.27900123h-1.21500397v8.18200111h1.25800324v-4.92199898c0-.47599983.08999634-.88000106.2709961-1.2140007zM434.68299866 320.24000168c.44400024-.17200089.81600189-.4130001 1.11800384-.72400093.30199433-.31099892.5169983-.67199898.64499665-1.08399964l-1.2139969-.3409996c-.10700225.2840004-.25800323.5209999-.45300292.71100044-.1949997.18999863-.42700195.33199883-.6949997.4259987-.26799774.09400176-.56800079.14100074-.89800262.14100074-.5079956 0-.9529953-.11000061-1.33699799-.33200073-.38400268-.22200013-.6819992-.54699898-.89699554-.97499848-.21500397-.4280014-.32300568-.95100021-.32300568-1.56900024v-.72400093c0-.45100022.09799958-.87399864.29299927-1.26799965.1949997-.3939991.4750061-.71500015.83900452-.9619999.36399841-.24699974.79599762-.37000083 1.29699707-.37000083.45500183 0 .84899902.10500145 1.18499756.31400108.33600616.20999908.59500122.49600029.7780075.8579998.18299866.36199951.27399445.77400017.27399445 1.23600006h-5.02799988v1.0869999h6.3069992v-.53300095c0-.76299858-.10199737-1.40599823-.30400085-1.9279995-.20199585-.52199936-.47399902-.94199943-.8149948-1.26000023-.34100343-.31800079-.71900178-.54800033-1.1340027-.68999862-.41500091-.1420021-.83699798-.21300125-1.26300048-.21300125-.73899842 0-1.38399506.18099975-1.93599701.54100036-.55200196.36000061-.98200226.86100006-1.28900147 1.50200081-.3069992.64099884-.46099853 1.37999916-.46099853 2.2179985 0 .83800126.15399933 1.57299996.46099853 2.20300103.30699921.62999916.7460022 1.11999893 1.3160019 1.46999931.56999969.35000038 1.24900054.52499962 2.03699493.52499962.55400085 0 1.0530014-.0869999 1.49700165-.25899887zM426.4960022 320.32800102v-9.01199913c0-.40499878.09099579-.7120018.27399444-.92200088.18300629-.20899964.48300171-.31399918.89800263-.31399918.18099975 0 .32700348.01599884.43900299.04800034.11199951.03199768.19999695.0589981.26399994.07999801l.3619995-1.08699798c-.09600066-.04299927-.24200439-.0890007-.43700408-.13899994-.1949997-.04999924-.4469986-.07400131-.7559967-.07400131-.39099884 0-.76200104.07799911-1.11399842.23400116-.352005.15599823-.63700104.39099884-.85700226.70299911-.22000122.31299973-.33000183.70299912-.33000183 1.17200089v9.31099891h1.25700379zm-2.57800293-8.18200111v1.0660019h4.41000366v-1.0660019h-4.41000366zM421.08399963 320.32800102v-9.01199913c0-.40499878.09100342-.7120018.27400208-.92200088.18299866-.20899964.4830017-.31399918.897995-.31399918.18099975 0 .32700347.01599884.43900298.04800034.11199952.03199768.19999695.0589981.26399994.07999801l.36199952-1.08699798c-.09600068-.04299927-.24199677-.0890007-.43699646-.13899994-.1949997-.04999924-.44700623-.07400131-.75600434-.07400131-.39099884 0-.76100158.07799911-1.11299896.23400116-.35199738.15599823-.63800049.39099884-.8580017.70299911-.22000123.31299973-.32999421.70299912-.32999421 1.17200089v9.31099891h1.25699615zm-2.57800293-8.18200111v1.0660019h4.41000367v-1.0660019h-4.41000367zM412.26300049 318.93800163c-.36199951-.2880001-.6309967-.66600036-.8050003-1.13500023-.1740036-.46899986-.2610016-.97599983-.2610016-1.52300071 0-.54699898.086998-1.05699921.2610016-1.52899933.1740036-.47200012.44300079-.8540001.8050003-1.14500046.36199951-.29100037.8239975-.43700027 1.38500213-.43700027.56099701 0 1.022995.1459999 1.38499451.43700027.36199951.29100037.63000488.67300034.80400086 1.14500046.1740036.47200012.26100158.98200035.26100158 1.52899933 0 .54700088-.08699798 1.05400085-.26100158 1.52300071-.17399598.46899987-.44200135.84700013-.80400086 1.13500023-.36199951.28800011-.8239975.43099976-1.3849945.43099976-.56100464 0-1.02300263-.14299965-1.38500214-.43099976zm3.3259964 1.03299904c.55599975-.35199928.98900604-.8429985 1.30000305-1.47499847.310997-.63199997.46600342-1.3710003.46600342-2.21600151 0-.85199929-.15500641-1.59599877-.46600342-2.23199845-.31099701-.63600158-.7440033-1.1289997-1.30000305-1.4810009-.55599976-.35200119-1.20199585-.52700042-1.94099427-.52700042-.73900604 0-1.38600158.17499923-1.94200134.52700042-.55599975.3520012-.98899841.84499932-1.30000305 1.4810009-.310997.63599968-.46599579 1.37999916-.46599579 2.23199845 0 .84500122.15499878 1.58400154.46599579 2.2160015.31100464.63199998.7440033 1.1229992 1.30000305 1.47499848.55599976.3520012 1.2029953.52799988 1.94200134.52799988.73899842 0 1.38499451-.17599869 1.94099427-.52799988zM402.29699707 320.24000168c.44400024-.17200089.8160019-.4130001 1.11800385-.72400093.30200195-.31099892.51699829-.67199898.64499664-1.08399964l-1.21499634-.3409996c-.10700226.2840004-.25800323.5209999-.45300293.71100044-.1949997.18999863-.42700195.33199883-.6949997.4259987-.26799774.09400176-.56700134.14100074-.89699554.14100074-.50800323 0-.95300293-.11000061-1.33700561-.33200073-.38400269-.22200013-.68299866-.54699898-.897995-.97499848-.21499634-.4280014-.32200622-.95100021-.32200622-1.56900024v-.72400093c0-.45100022.0980072-.87399864.29299926-1.26799965.19500733-.3939991.4750061-.71500015.83900452-.9619999.36399841-.24699974.79599762-.37000083 1.29699707-.37000083.45500183 0 .84900665.10500145 1.18500519.31400108.33599853.20999908.59500122.49600029.77799988.8579998.18299865.36199951.27399444.77400017.27399444 1.23600006h-5.02799988v1.0869999h6.30700684v-.53300095c0-.76299858-.102005-1.40599823-.30400085-1.9279995-.20200348-.52199936-.47399903-.94199943-.81500245-1.26000023-.34100341-.31800079-.72000122-.54800033-1.13500213-.68999862-.41500092-.1420021-.83599854-.21300125-1.26200104-.21300125-.73899841 0-1.38400269.18099975-1.93600464.54100036-.5519867.36000061-.98199463.86100006-1.2889862 1.50200081-.30700684.64099884-.4610138 1.37999916-.4610138 2.2179985 0 .83800126.15400696 1.57299996.4610138 2.20300103.30699157.62999916.74499511 1.11999893 1.31498718 1.46999931.57000732.35000038 1.25000763.52499962 2.03800964.52499962.55399323 0 1.05299378-.0869999 1.49699402-.25899887zM390.04200745 314.19200134c.18598938-.33399963.44198608-.58799934.76699829-.76199913.32499695-.1740017.69400024-.26100158 1.10598755-.26100158.59300232 0 1.05700683.17900085 1.39300537.5360012.33599853.35700035.50300598.8599987.50300598 1.51000023v5.11299896h1.25698852v-5.1989994c0-.70300102-.11599731-1.28300095-.34899902-1.73900032-.2330017-.45599938-.55799866-.79500008-.97698975-1.0170002-.41900634-.22200012-.90800476-.33300018-1.4650116-.33300018-.6429901 0-1.15699767.125-1.54199218.375-.3849945.25-.67399597.5870018-.86599731 1.01000022h-.10600281v-4.0059986h-1.25700379v10.90899848h1.25700379v-4.92199898c0-.47599983.09300232-.88000106.27900696-1.2140007zM383.43499756 318.32500076c0 .47599984.11100769.8710003.33300781 1.18300057.22200012.31299972.5019989.54500007.84098816.69799995.33900452.15299988.68701172.2290001 1.04200745.2290001.23399353 0 .42700195-.0170002.58000183-.0510006.15299988-.0339985.27200317-.06599999.35699463-.09799957l-.2559967-1.12999917c-.05299378.01099968-.12400819.02400017-.21299744.03999901-.08900452.01600075-.20300293.02400017-.34100342.02400017-.18499756 0-.35899353-.02899933-.52400208-.08799934-.16499328-.05900002-.30000305-.17500115-.40499878-.35099984-.10499572-.17600059-.15699768-.44099998-.15699768-.79600143v-7.79899979h-1.25700378v8.13899994zm-1.23599243-6.17900085v1.0660019h4.23999023v-1.0660019h-4.23999023zM375.62800598 312.57300186c-.4630127-.35499954-1.09899902-.53300094-1.90901184-.53300094-.57499695 0-1.08898926.10200119-1.54199219.30400085-.45300293.20199966-.80999756.480999-1.07099914.83600044-.26100159.35499954-.3919983.76299858-.3919983 1.22499848 0 .56500053.17500306 1.0340004.5249939 1.4090004.3500061.375.90000916.64999961 1.64900208.82800102l1.36300659.3199997c.4119873.09599875.71798706.23999976.91699219.434.19900512.19400025.29800415.43199921.29800415.7159996 0 .3519993-.17300415.65299989-.5189972.90299989-.3460083.25-.81300353.37599945-1.39900207.37599945-.51499939 0-.93099976-.1099987-1.24900818-.32999993-.31799316-.2199993-.5329895-.55099868-.64700317-.99099922l-1.19299317.29800034c.1459961.69599914.4920044 1.22500038 1.03900147 1.5869999.54699707.3619995 1.23699951.5439987 2.07200622.5439987.63598633 0 1.19299317-.10699843 1.67199707-.31999969.47898865-.21299934.85299683-.5039997 1.1210022-.87299919.26799011-.36899948.40299988-.78899955.40299988-1.25799942 0-.5720005-.17900085-1.03900146-.53800964-1.40299987-.35899353-.36400033-.9039917-.63400078-1.6360016-.81200028l-1.21398925-.29899979c-.4830017-.12100029-.83900452-.27200126-1.06600952-.45300102-.22698975-.18099975-.33999634-.42700004-.33999634-.73999977 0-.35199928.16600037-.6420002.4980011-.87100029.33200073-.2290001.7480011-.34300041 1.24899292-.34300041.36601257 0 .66600037.05800056.90000916.17500114.23399353.11699868.41999816.26599884.55699157.4449997.13700867.17899895.2400055.36299896.31100464.5510006l1.1289978-.31900025c-.19499206-.58200073-.5249939-1.0510006-.98799133-1.40600014zM368.53300476 310.5320015c.17599487-.16699982.26399231-.36700058.26399231-.60100174 0-.23399735-.08799744-.43499756-.2639923-.60199738-.17601014-.16699982-.3860016-.25099945-.63101197-.25099945-.24499512 0-.45498657.08399963-.6309967.25099945-.17599488.16699982-.26399232.36800003-.26399232.60199738 0 .23400116.08799744.43400192.26399231.60100174.17601014.16699981.3860016.25099945.6309967.25099945.24501038 0 .45500184-.08399964.63101197-.25099945zm-.01300049 9.79599952v-8.18200111h-1.25700378v8.18200111h1.25700378zM360.0099945 312.57300186c-.46299743-.35499954-1.09899902-.53300094-1.90899658-.53300094-.57499694 0-1.08900451.10200119-1.54199218.30400085-.45300293.20199966-.81001282.480999-1.07099915.83600044-.26100159.35499954-.39100647.76299858-.39100647 1.22499848 0 .56500053.17399597 1.0340004.52400208 1.4090004.34999084.375.8999939.64999961 1.64900207.82800102l1.36399842.3199997c.41200256.09599875.71699523.23999976.91600036.434.19898987.19400025.29800415.43199921.29800415.7159996 0 .3519993-.17300415.65299989-.51901245.90299989-.34599304.25-.81298828.37599945-1.39900207.37599945-.5149994 0-.93099976-.1099987-1.24899292-.32999993-.31799317-.2199993-.53300476-.55099868-.64700318-.99099922l-1.19299316.29800034c.1459961.69599914.49198913 1.22500038 1.03900146 1.5869999.54699707.3619995 1.23699951.5439987 2.07199097.5439987.63600159 0 1.19300842-.10699843 1.67199707-.31999969.4790039-.21299934.8540039-.5039997 1.12200928-.87299919.26800537-.36899948.4019928-.78899955.4019928-1.25799942 0-.5720005-.17900086-1.03900146-.53799439-1.40299987-.35899353-.36400033-.90400696-.63400078-1.63600159-.81200028l-1.21400451-.29899979c-.48300171-.12100029-.83799744-.27200126-1.06498719-.45300102-.227005-.18099975-.34100341-.42700004-.34100341-.73999977 0-.35199928.16600036-.6420002.4980011-.87100029.33200073-.2290001.7480011-.34300041 1.24899291-.34300041.36599732 0 .66600037.05800056.90000916.17500114.23399353.11699868.41999817.26599884.55699158.4449997.13700866.17899895.24000549.36299896.31100464.5510006l1.12998962-.31900025c-.19499207-.58200073-.52598572-1.0510006-.98899841-1.40600014zM352.91499329 310.5320015c.17601013-.16699982.26400756-.36700058.26400756-.60100174 0-.23399735-.08799743-.43499756-.26400756-.60199738-.17599488-.16699982-.38598633-.25099945-.6309967-.25099945-.24499513 0-.45500184.08399963-.63099671.25099945-.17599488.16699982-.26399231.36800003-.26399231.60199738 0 .23400116.08799743.43400192.2639923.60100174.17599488.16699981.3860016.25099945.63099671.25099945.24501038 0 .45500183-.08399964.6309967-.25099945zm-.0130005 9.79599952v-8.18200111h-1.25698852v8.18200111h1.25698853zM344.31799316 314.19200134c.18600464-.33399963.44200135-.58799934.76701355-.76199913.32499695-.1740017.69299317-.26100158 1.10499573-.26100158.59300232 0 1.05699158.17900085 1.39299011.5360012.3360138.35700035.50401307.8599987.50401307 1.51000023v5.11299896h1.25698852v-5.1989994c0-.70300102-.11599731-1.28300095-.34899902-1.73900032-.23300171-.45599938-.55899048-.79500008-.97799683-1.0170002-.41899109-.22200012-.90699768-.33300018-1.46400452-.33300018-.6429901 0-1.1579895.125-1.54299926.375-.38499451.25-.6729889.5870018-.86499024 1.01000022h-.10700989v-4.0059986h-1.25698852v10.90899848h1.25698852v-4.92199898c0-.47599983.0940094-.88000106.27999878-1.2140007zM336.15499878 310.5909996v9.73700142h1.32099914v-9.73700142h3.43000794v-1.17199707h-8.18200684v1.17199707h3.43099976z"/>
      </g>
      <path fill="#FFF" d="M198.25-11.5v23h-396.5v-23h396.5z" style="display:block" transform="translate(524.25 341)"/>
      <path fill="#FFF" d="M198.25-11.5v23h-396.5v-23h396.5z" style="display:block" transform="translate(524.25 316)"/>
      <g style="display:block">
        <path fill="#FFF" d="M704 391h16c2.20899963 0 4 1.79100037 4 4v16c0 2.20899963-1.79100037 4-4 4h-16c-2.20899963 0-4-1.79100037-4-4v-16c0-2.20899963 1.79100037-4 4-4z"/>
        <path fill="#646B81" d="M706.5 396.5c.27600098 0 .5.22400093.5.5v1h10.5c.20199585 0 .3849945.12199974.46200562.30900002.07699584.18600082.0349884.40200042-.10800171.54500007L714.70700073 402l3.14700318 3.1459999c.1429901.14299966.18499755.35899926.1080017.54500008C717.88499452 405.87800026 717.70199586 406 717.5 406H707v4.5c0 .27600098-.22399902.5-.5.5s-.5-.22399902-.5-.5V397c0-.27599907.22399902-.5.5-.5zm.5 8.5h9.29299927l-2.64700318-2.6459999c-.19499206-.19599915-.19499206-.51200105 0-.7080002L716.29299927 399H707v6z"/>
      </g>
      <path fill="#646B81" d="M151 17c-.82800293 0-1.5.67200089-1.5 1.5v1H147c-.27600098 0-.5.22400093-.5.5s.22399902.5.5.5h.54499817l.78500366 8.23699951C148.45199585 30.02000046 149.52999878 31 150.81900024 31h3.36199952c1.28900146 0 2.36700439-.97999954 2.4889984-2.26300049L157.45500184 20.5H158c.27600098 0 .5-.22400093.5-.5s-.22399902-.5-.5-.5h-2.5v-1c0-.82799911-.67199707-1.5-1.5-1.5h-3zm3.5 2.5h-4v-1c0-.27599907.22399902-.5.5-.5h3c.27600098 0 .5.22400093.5.5v1zm-5.94999695 1h7.8999939l-.7749939 8.1420002C155.60099792 29.41200066 154.95500183 30 154.18099975 30h-3.3619995c-.77400208 0-1.41999817-.58799934-1.4940033-1.3579998L148.55000305 20.5z" style="display:block" transform="translate(527.5 378.5)"/>
      <path fill="#018374" d="M-191.5 12.5h49c2.20899963 0 4 1.79100037 4 4v16c0 2.20899963-1.79100037 4-4 4h-49c-2.20899963 0-4-1.79100037-4-4v-16c0-2.20899963 1.79100037-4 4-4z" style="display:block" transform="translate(527.5 378.5)"/>
      <g style="display:block">
        <path fill="#646B80" d="M456.36199951 407.29401367c.35499954-.138.65299988-.331.89500046-.57999997.24100113-.24900002.41400146-.53700006.51599884-.86699999l-.97200012-.273c-.08499909.227-.20599747.41699994-.36199951.569-.15599823.15199996-.34199906.26599998-.55599976.34099997-.21500015.07499998-.45399857.11299997-.7179985.11299997-.40600205 0-.7630005-.088-1.0699997-.26599997-.30700302-.17799997-.54600143-.43799996-.71800232-.77999997-.17199707-.34200001-.25799942-.76099992-.25799942-1.25500012v-.57999992c0-.36099982.07900238-.69900012.23500061-1.01400018.15599823-.31500005.38000107-.57200002.67100144-.76900005.29100036-.19699955.63599777-.296 1.03699874-.296.36399842 0 .68099976.08300018.94900132.2510004.26799774.16799974.47599792.3959999.62199783.68599987.1459999.28999996.21900177.61999989.21900177.98899984h-4.02199936v.8690002H457.875v-.42600012c0-.61100006-.08100128-1.12499976-.24300003-1.54299998-.16199875-.41799975-.37900162-.75299978-.65200043-1.00699997-.2729988-.25400019-.57600021-.4380002-.90800094-.55200005-.33199692-.11399984-.66899872-.171-1.00999833-.171-.5909996 0-1.10699844.14499998-1.54899978.43300009-.44200134.2880001-.78499985.68900013-1.03100205 1.20200014-.24599838.51300001-.36800003 1.10399985-.36800003 1.77399993 0 .67099976.12200165 1.2579999.36800003 1.76199984.2460022.50400007.59700013.89700002 1.0530014 1.17700005.45600129.28.99900056.419 1.63000108.419.44300079 0 .84199905-.068 1.1969986-.206zM449.99399948 401.15901375c-.37099838-.28399992-.88000107-.42600012-1.52799988-.42600012-.45999908 0-.87199783.08099985-1.23400116.24300003-.3619995.16200018-.64699936.38500023-.85599899.66900015s-.31399918.61100006-.31399918.98000002c0 .45199966.1399994.8269999.41999817 1.12699985.2800026.29999996.72000122.52099991 1.31900025.66300011l1.0909996.2559998c.33000183.07700014.57400131.19200015.73300171.34700013.1590004.15499997.23899841.34599995.23899841.57299995 0 .28100002-.13899994.523-.41599655.72300005-.27700043.19999993-.64900207.29999995-1.11800003.29999995-.41200256 0-.7460022-.088-1-.26400006-.25400162-.176-.42700195-.44099998-.51800156-.79299998l-.95399856.23900008c.11599731.55699992.39299774.97999996.83099747 1.26999995.43700027.29000001.99000167.43400002 1.65800094.43400002.50799942 0 .95399857-.085 1.33800125-.25500001.38399887-.17.68199921-.404.89699936-.69900002.2140007-.29500001.32099915-.63099998.32099915-1.00599998 0-.4569999-.14300156-.8319999-.4300003-1.12300002-.28699876-.2909999-.72299958-.5079999-1.30799866-.64999986l-.97200013-.23800016c-.38600158-.09699988-.67000198-.217-.85200119-.36199998-.1819992-.14499999-.2729988-.34299994-.2729988-.59299994 0-.28100014.13299941-.51399994.39899825-.69700003.26600266-.18300008.59799958-.27400016.99900055-.27400016.29299927 0 .5320015.046.72000122.14000034.18799973.09399986.33599854.21299982.4449997.35599995.10900116.14299964.1930008.28999996.25.44099998l.90299988-.25600004c-.15600205-.46600008-.41899872-.84100008-.79000092-1.125zM440.46900177 406.34801364c-.26000214-.17799997-.38899994-.44199991-.38899994-.791 0-.25599993.06799698-.45800007.20599747-.607.13800049-.14899993.3199997-.26200009.54600143-.3369999.22599793-.07500004.46899796-.13000011.72999954-.16400003.1079979-.01399994.25-.03200006.42499924-.05299997.17499924-.02100015.35499954-.04700017.54100037-.07700014.18600082-.02999998.35100174-.06499982.49399948-.10599995.14300156-.04099989.23600006-.08800006.27899933-.13899994v.921c0 .273-.0699997.533-.21099854.77999998-.14099884.24699997-.34799957.449-.62200165.60499995-.27399826.15600002-.6099968.23400003-1.00799942.23400003-.40100097 0-.73099899-.088-.99099731-.26600003zm1.80499649.99900003c.26399994-.114.47600174-.251.63500214-.413.1590004-.162.2729988-.31400002.3409996-.45599998h.05099869v.88599998h1.00600052v-4.3119998c0-.51999998-.08599854-.93500042-.25600052-1.24500036-.16999817-.30999994-.38399887-.54099989-.64099884-.69399977-.25699997-.15299987-.52299881-.25500011-.79700089-.3050003-.27399826-.04999971-.51699829-.07499981-.72699737-.07499981-.33000183 0-.66400147.046-1.00300217.13500023-.34000015.08899975-.65200043.24499988-.93799973.46799993-.2859993.22300005-.51399993.533-.6839981.93099976l.95499801.34100008c.11100006-.23899984.30200196-.46299982.57500077-.67299986.2729988-.21000004.64899826-.31500006 1.1289978-.31500006.46300125 0 .80900192.11600018 1.03800201.34899998.2290001.2329998.3429985.55999994.3429985.98000002v.03399992c0 .16200018-.0569992.27600002-.17199706.34100008-.11500168.06500006-.29700089.11199999-.54600144.13899994-.24900055.02699995-.57099914.06599998-.96900177.1170001-.30399704.03999996-.60599899.09299994-.90599823.15999985-.29999923.06700015-.57300186.16700005-.8199997.30000019-.24700164.13399982-.44499969.31799984-.59300231.5519998-.14799881.23399998-.22099686.53900004-.22099686.91400004 0 .426.09899903.78900004.29800034 1.08900005.1989975.29999998.4679985.528.80599975.686.33799744.158.7139969.23599999 1.1289978.23599999.38100053 0 .70299912-.056.96699906-.17zM435.92000008 407.36401367v-4.1420002c0-.2949996.07299995-.55900001.2159996-.79099989.14299965-.23199987.3390007-.4130001.58800125-.54500007.24899864-.13199997.53199959-.19799996.85000038-.19799996.13299942 0 .25999832.01000023.38100052.02800036.12099838.01899957.1989975.03099966.2329979.03999996v-1.02300024c-.05699921-.00600004-.14099884-.00899982-.2519989-.01200008-.11100007-.00299979-.20299912-.00499964-.27700043-.00499964-.3920021 0-.74500084.10099983-1.05700112.30299997-.31299972.20199967-.52799988.46399975-.64699936.78799963h-.06900024v-.98799991h-.97099876v6.54500007h1.00499916zM429.0529995 402.45501375c.14900016-.2670002.35400009-.47000027.61400032-.6090002.26000023-.13899994.55400085-.20900011.88400078-.20900011.47399902 0 .84599876.1420002 1.11400032.42800045.26799964.28599977.40299987.68799972.40299987 1.2079997v4.09100008h1.00599861v-4.15899992c0-.56200027-.0929985-1.02600002-.27899932-1.39100027-.18600083-.36499977-.4470005-.63599968-.7819996-.81399965-.33500098-.17799998-.72599982-.2670002-1.17200088-.2670002-.51399994 0-.92599868.10099983-1.23399925.30100012-.30800056.1999998-.53899956.46899986-.69199943.80700016h-.085001v-3.20400047h-1.00600052v8.72700023h1.00600052v-3.93799996c0-.3809998.0739994-.70400024.22299958-.97099996zM421.71299934 402.80601358c.1420002-.36800003.35300064-.6539998.63100052-.86000013.27799988-.20599985.62199974-.30900001 1.03100014-.30900001.4260006 0 .78000069.1090002 1.06299973.3260002.28300094.21700002.49399948.51100017.63500022.88199998.14100075.37100029.21100045.78600001.21100045 1.24600005 0 .46600008-.0720005.88899994-.21500016 1.26799989-.14299964.37900007-.3560009.68000006-.63899993.90300011-.28300095.223-.63500023.33499998-1.05500031.33499998-.40299988 0-.74500084-.106-1.02300072-.31800002-.27799988-.212-.48999977-.50599992-.63500023-.88199997-.14499855-.37599992-.21699905-.81200003-.21699905-1.30599999 0-.48900008.07099915-.91700006.21299934-1.28500009zm-.19599914 7.01300002v-3.46099997h.08499908c.07400132.11900002.1800003.27000004.31599999.45000005.13600158.18.32999992.33999999.58300018.48099999.25300026.141.59000015.211 1.01000023.211.54500008 0 1.02700043-.138 1.4449997-.41500001.41800117-.27699998.74400138-.669.98000144-1.17600003.23600007-.50699997.3540001-1.10799992.3540001-1.801 0-.68700004-.11800003-1.283-.3540001-1.78900003-.23600006-.50600005-.56400108-.89599991-.98400116-1.17199994-.42000007-.27600002-.90699958-.41400003-1.45800018-.41400003-.42599869 0-.76299858.07000017-1.01199913.21099997-.24900055.14100027-.43900108.30000019-.57100105.47800016-.13199997.17799997-.2349987.32200003-.30900002.43599987h-.11899948v-1.03900003h-.97200012v9h1.00600052zM417.46399975 407.29401367c.3550005-.138.65299988-.331.89500046-.57999997.24100017-.24900002.41399955-.53700006.51599979-.86699999l-.97200012-.273c-.08500004.227-.20600033.41699994-.36199951.569-.15600014.15199996-.34200001.26599998-.55600071.34099997-.2149992.07499998-.45399952.11299997-.71799946.11299997-.40600014 0-.76300049-.088-1.07000065-.26599997-.3069992-.17799997-.54599953-.43799996-.71799946-.77999997-.17199993-.34200001-.25699997-.76099992-.25699997-1.25500012v-.57999992c0-.36099982.07800007-.69900012.2340002-1.01400018.15600015-.31500005.38000012-.57200002.67099954-.76900005.29100036-.19699955.63700008-.296 1.0380001-.296.36400032 0 .6800003.08300018.94799996.2510004.26799965.16799974.47599983.3959999.62199974.68599987.1459999.28999996.22000026.61999989.22000026.98899984h-4.02299976v.8690002h5.04500008v-.42600012c0-.61100006-.08100033-1.12499976-.24300003-1.54299998-.16200066-.41799975-.37900067-.75299978-.65200043-1.00699997-.27299976-.25400019-.57499981-.4380002-.90699959-.55200005-.33199978-.11399984-.66900062-.171-1.01000023-.171-.5909996 0-1.10700035.14499998-1.54899978.43300009-.4420004.2880001-.78499985.68900013-1.03100014 1.20200014-.2460003.51300001-.36900044 1.10399985-.36900044 1.77399993 0 .67099976.12300015 1.2579999.36900044 1.76199984.24600029.50400007.59599972.89700002 1.05200004 1.17700005.45600033.28.9989996.419 1.63000012.419.44299984 0 .842-.068 1.19699955-.206zM408.97199988 403.4440136l2.11300016 3.92000007h1.22699976l-2.14699984-3.92000007h-1.19300008zm-1.8579998 3.92000007v-7.78999996h1.8579998c.47199989 0 .85000015.07200003 1.13700033.21500015.2869997.14299965.4959998.34699965.62699985.6079998.13100004.26100016.1960001.56699992.1960001.9159999 0 .34899997-.06500006.65000009-.19400024.90100002-.12899971.25099992-.33599997.4460001-.62199974.58200025-.28600026.13599968-.66100026.204-1.1270001.204h-2.35300004v.95499992h2.38699972c.67600012 0 1.23100043-.11300015 1.66600037-.33899998.43499994-.22600008.75699997-.53699995.967-.93500019.21000005-.39799976.316-.85400009.316-1.36800003 0-.51399994-.10599995-.97399997-.316-1.37699985-.21000003-.40299988-.53399991-.7199998-.97100019-.95200014-.43799972-.23200035-.99699974-.34700012-1.6789999-.34700012h-2.949v8.72700023h1.05700004z"/>
      </g>
      <g style="display:block">
        <path fill="#FFF" d="M376.61499786 406.02300334c-.00299835.50000012.1020012.91500008.314003 1.24300009.21199798.32799998.50899887.57.89199829.72599999.38299942.156.83000183.223 1.34000015.203.27500152-.01.50899887-.037.70100021-.082.19200134-.045.3409996-.083.4469986-.116l-.33300019-1.57599996c-.05299758.01-.1289978.02399993-.22799682.04199994-.09900284.018-.20000076.02700007-.2990036.02700007-.14299774 0-.2669983-.02100003-.375-.06400001-.1079979-.04299999-.19099808-.11900008-.25099945-.227-.05999756-.10800004-.09000016-.25900006-.09000016-.45499993v-7.11899972h-2.11800003v7.39799953zm-1.04399871-5.56800008v1.59100008h4.59899902v-1.59100008h-4.59899902zM372.12099838 408.09100342v-4.32000017c0-.3119998.0700016-.5869999.21100235-.82599974.14099884-.23900032.33300019-.4250002.57699967-.55900002.24399948-.1340003.5209999-.2010002.83300018-.2010002.1459999 0 .30599976.01200007.48199844.03500031.1759987.02299977.31399918.0489998.41300202.079v-1.87900019c-.09300232-.02299976-.20000077-.04199981-.32300186-.05499982-.1230011-.01300002-.23699952-.01999999-.3429985-.01999999-.42800141 0-.80599976.12199975-1.1340027.3659997-.3279991.24399996-.56199836.60200024-.7009983 1.07600022h-.07999992v-1.33200026h-2.0530014v7.63600016h2.11800002zM366.78399849 407.94900341c.48200035-.19399999.87600136-.46499999 1.18300056-.815.30700112-.35000003.51000023-.76.60900116-1.23099996l-1.95800018-.12899994c-.07299995.1919999-.1800003.35399985-.31900024.48699987-.13899994.13300001-.30599976.23300004-.50200081.29900002-.19599915.06599998-.4109993.09899998-.64599991.09899998-.35499954 0-.6609993-.07499993-.92000008-.22399998-.25899887-.14899993-.45800018-.36099994-.59899902-.63600004-.14100075-.27499985-.21100044-.60099983-.21100044-.97899985v-1.24800015c.00300026-.30200004.07499885-.57599973.2139988-.82299995.13900184-.24700022.33200072-.44399977.57900046-.592.24699975-.14699984.5300007-.2210002.8520012-.2210002.30799865 0 .57899856.06800031.81299972.20200014.23399925.1340003.41699982.31900024.54999924.5539999.13299942.23500013.1989994.50500011.1989994.80999994h-4.45499992v1.3130002h6.44799995v-.58200001c0-.64999986-.0909996-1.21699977-.2729988-1.70299983-.18200112-.48600006-.43700028-.88800001-.7630005-1.21000004-.3260002-.3210001-.70800018-.5630002-1.1439991-.72399998-.43600082-.16100025-.90500068-.24100017-1.4090004-.24100017-.74900054 0-1.40200042.16599989-1.95700072.49700021-.55500031.33099986-.9849987.79399968-1.28999901 1.38699961-.3050003.59300041-.45700074 1.28300047-.45700074 2.06900025 0 .80500006.15200043 1.50200009.45700074 2.09000003.3050003.58799994.73999977 1.04199994 1.3050003 1.36199996.56499863.32 1.23999977.48 2.02599907.48.62999916 0 1.18600083-.097 1.66799927-.291zM359.15299988 400.96700335c-.5550003-.408-1.31599999-.612-2.28000069-.612-.65299988 0-1.22099972.09700013-1.70699978.28900004-.48600006.19199991-.86200046.46500015-1.1289997.82000017-.2670002.35500002-.40000058.77799988-.40000058 1.26799965 0 .57000017.18099976 1.03900004.54399967 1.4070003.36300087.3679998.91700077.62599993 1.6630001.77499986l1.32300092.26399994c.33099937.06600022.57600021.16200018.7349987.28600001.1590004.12400008.24100113.28200007.24400139.47399998-.00300026.2290001-.11900139.41600013-.34600067.56000006-.22699929.14400006-.52599907.21600008-.89699936.21600008-.37800026 0-.68800068-.08000004-.9300003-.24100005-.24200059-.16100002-.39400006-.39599991-.45700074-.704l-2.08299923.11000013c.10299969.72899986.45300007 1.3039999 1.05099964 1.72699988.59799958.42300002 1.40299988.63400002 2.41399956.63400002.6630001 0 1.24900055-.106 1.75800133-.316.50899887-.21.90999984-.504 1.20299911-.88200003.29299927-.37800002.44000054-.81700003.44000054-1.3169999 0-.54999996-.18200112-.99500013-.54700089-1.33299995-.36499977-.3380003-.91899872-.58400011-1.6609993-.73600006l-1.38199997-.27799988c-.35499954-.07600022-.6050005-.17700005-.7510004-.30299998-.1459999-.1260004-.21800041-.28100013-.21800041-.4630003 0-.22900009.11300087-.41099977.3380003-.54899978.22500038-.13700008.5020008-.20600033.82999992-.20600033.24500084 0 .45700073.04000044.63400078.1210003.17700004.08099984.32099914.19000005.4300003.32399987.10899925.13399983.18099976.28399992.2139988.44999981l1.93900108-.11999988c-.09300041-.70300007-.41699982-1.25699997-.97200012-1.66499996zM347.3699994 402.83400345c.12099982-.2340002.28999997-.41200018.50699998-.53499985.217-.12300014.46799993-.18400001.75299978-.18400001.42399979 0 .75800037.13199997 1 .39499998.24200058.263.36100006.62999963.3579998 1.09699964v4.4840002h2.11700058v-4.86199998c0-.59299994-.1090002-1.10500002-.32800007-1.53399992-.21899986-.4289999-.52500057-.76000023-.91900062-.9920001-.39400006-.23199988-.8569994-.34800005-1.38699913-.34800005-.5670004 0-1.04900074.13000011-1.4470005.38999986-.39799977.26000023-.68099976.6130004-.84999991 1.05700016h-.09000015v-1.34700012h-2.01800013v7.63600016h2.11800003v-4.41499996c.00300026-.32800007.06500006-.6079998.18600035-.84200001zM341.17799926 397.90900326v10.18200016h2.15300011v-10.18200016h-2.15300011z"/>
      </g>
      <path fill="#FFF" d="M200.44799805-109.41400146c-.20599366-1.78399659-1.00500489-3.4469986-2.27000428-4.72200013-1.26499939-1.27400207-2.92298889-2.08599853-4.70498657-2.3050003-1.78300476-.2179947-3.58700561.16999817-5.12200928 1.10100555-1.53500366.93099976-2.71299743 2.35199738-3.34300231 4.03399658-.62998963 1.68199921-.67500306 3.52700043-.12998963 5.23699952.54599 1.71099853 1.6519928 3.18900299 3.13899231 4.1949997 1.4880066 1.00600432 3.27000427 1.4830017 5.06100464 1.35299682 1.79199219-.12999726 3.48699951-.85799408 4.81399536-2.06899262l-.97399902-1.06700134c-1.08700562.99099731-2.477005 1.58799744-3.94400025 1.6949997-1.46800232.10599517-2.92799377-.28400422-4.14700317-1.10900117-1.21899414-.8239975-2.125-2.03500366-2.57199097-3.43700408-.44700622-1.40200043-.40901184-2.91299439.10699463-4.29100037.51600647-1.37799835 1.47999573-2.54199982 2.7380066-3.30499268 1.25898742-.76300049 2.7369995-1.08100128 4.19699096-.90200042 1.46099854.17899322 2.81800842.84399414 3.85499573 1.88800048 1.03700256 1.04499817 1.69200134 2.40699768 1.8600006 3.86899567l1.43600465-.16500091z" style="display:block" transform="translate(527.5 378.5)"/>
      <g style="display:block">
        <path fill="#018374" d="M345.3730011 264c-3.2689972 0-5.91099548 2.685997-5.91099548 6s2.64599609 6 5.91099548 6c3.2639923 0 5.91099548-2.68499756 5.91099548-6 0-3.314003-2.64700317-6-5.91099548-6zm0 9.73400116c-1.9860077 0-3.5960083-1.6720047-3.5960083-3.73400116s1.6100006-3.73400116 3.5960083-3.73400116c1.98599243 0 3.59599304 1.6720047 3.59599304 3.73400116s-1.61000061 3.73400116-3.59599304 3.73400116zM338.67500305 270.42199707h-5.28199768v1.8730011h1.29699707c.32899475.00700378.65899658-.0149994.98399353-.0660019l.0169983.01700593c-.60699464.88700103-1.70199586 1.51200103-2.98399354 1.51200103-2.06700134 0-3.70700073-1.64300537-3.70700073-3.76399993 0-2.12200165 1.63999939-3.7630005 3.70700073-3.7630005.59700012.00099946 1.18499756.14699555 1.71400452.42499543.5289917.27899933.98199463.68099976 1.31999206 1.1740036l1.852005-1.27200317c-.53900146-.79599762-1.26800536-1.4469986-2.1199951-1.89299774-.85200501-.44599915-1.80101014-.67500306-2.7630005-.66500092-.78900146-.0059967-1.57200622.14499664-2.30200195.4449997-.7310028.2990036-1.3939972.7409973-1.9520111 1.2990036-.55799866.5589981-.99899293 1.22299957-1.2979889 1.9529953-.29800415.7310028-.44799805 1.51399994-.44100952 2.3030014 0 3.35399628 2.62400818 6 5.88900757 6 1.9980011 0 3.65699768-1.13400269 4.31300354-2.38400269l.0329895.01700592c-.09700012.37599946-.14700317.7630005-.147995 1.15099335v.93800354l1.8710022-.00499725v-5.2950058z"/>
        <path fill="none" stroke="#ADB2C3" stroke-linecap="round" stroke-width=".5" d="M408.2440033 260v20"/>
        <path fill="none" stroke="#646B81" stroke-linecap="round" d="M432.14600372 265v10M429.14600372 267v6M435.14600372 267v6M438.14600372 269v2M426.14600372 269v2"/>
        <path fill="#F4F4F6" d="M364.96899414 261.66000366h23.54701233c2.25898743 0 4.08999634 1.8319931 4.08999634 4.0909958v8.49800109c0 2.25900268-1.83100891 4.08999634-4.08999634 4.08999634h-23.54701233c-2.25898743 0-4.09098816-1.83099366-4.09098816-4.08999634v-8.4980011c0-2.25900268 1.83200073-4.09099579 4.09098816-4.09099579z"/>
      </g>
      <g style="display:block">
        <path fill="#646B80" d="M384.32400513 272.69500464c-.22200013-.15099996-.33199883-.37599999-.33199883-.67399996 0-.21800006.05900002-.38999999.17599869-.51699996.11700058-.1270001.27300072-.22300005.46500015-.28700018.19200134-.0639999.39900017-.11099983.62199974-.13999987.09200096-.01200008.21300125-.02699995.36200142-.04500008.14900017-.01799988.30200005-.04099988.46099854-.06599998.1590004-.02499986.2990017-.056.42100143-.09100008.12199974-.03499985.20199967-.07399988.23799896-.1179998v.78499986c0 .2320001-.05999946.45300006-.1800003.66400003-.11999893.21099997-.29599953.38300002-.52999878.51600003-.23400116.13300002-.52000046.19999999-.85900116.19999999-.3409996 0-.62199974-.07599998-.84399986-.227zm1.5380001.851c.22500039-.097.40500069-.214.54100037-.35200001.13599968-.13799999.23200035-.267.29000092-.38799999h.04399871v.755h.85700035v-3.67499995c0-.44300008-.07299995-.79700017-.2180004-1.06100011-.14500047-.26399994-.32699967-.46099997-.54599953-.59200001-.21899987-.13100004-.4449997-.217-.67900086-.25899982-.23399925-.0420003-.44099998-.06400013-.61999893-.06400013-.28100014 0-.56599999.03900003-.85499954.11500024-.28900147.07599974-.55599976.20899964-.79899979.3989997-.24300003.19000005-.43800163.45499992-.58300018.79400014l.81399917.28999997c.09399987-.20300007.25799942-.39499999.48999977-.57399989.23200036-.17900037.5529995-.26800012.9619999-.26800012.39500046 0 .69000053.09899997.88500023.29699993.1949997.19899988.29199981.47800016.29199981.83599996v.02900005c0 .13800001-.04899978.23399997-.14699936.28999996-.09799957.056-.25300025.09500003-.46500015.11800003-.2119999.023-.48699951.056-.82600021.10000014-.25900078.03399992-.5170002.079-.77199936.13599992-.25500107.05699992-.48800087.14199996-.69900131.25600004-.21099854.11399985-.37899971.27099991-.50499916.47099996-.12599945.20000005-.18899918.459-.18899918.77900004 0 .36299992.08499908.67199994.25499916.92699993.16900063.25500003.39800072.45100002.68600082.58500002.2879982.134.6079998.202.9619999.202.3239994 0 .59999847-.049.82499885-.146zM379.65600586 272.19500458c0 .324.07600021.59400004.22699928.80700004.15100003.21300003.34300041.37100003.57400036.47500002.23099995.104.46800041.157.71000004.157.15999985 0 .29199982-.012.3959999-.035.1040001-.023.18499947-.045.24300004-.067l-.17399979-.77000003c-.0359993.00700003-.08600044.01600004-.1459999.02700001-.06100083.01100004-.1380005.01700002-.23200036.01700002-.12599945 0-.24499988-.01999998-.3579998-.06-.11299992-.04000002-.20499992-.12-.27600002-.23999995-.0710001-.12-.10700035-.301-.10700035-.5430001v-5.31699991h-.8569994v5.5489999zm-.84300041-4.21200001v.72599983h2.89100075v-.72599983h-2.89100075zM376.28300571 273.50100464c.3029995-.117.55599976-.282.76200009-.49400002.20599937-.21199995.35299969-.45799995.43999958-.73899996l-.82800007-.232c-.07299995.194-.17599964.35500002-.30900002.48500002-.13299942.12999993-.2909994.22599995-.47399997.28999996-.18299961.064-.38700009.09600001-.61199951.09600001-.34599972 0-.65000058-.07600003-.91100026-.227-.26099968-.15099996-.4659996-.37200003-.6119995-.66399997-.14700032-.29200005-.22000027-.64900005-.22000027-1.07000005v-.49399996c0-.30699992.06699943-.59500003.1999998-.86400008.13300038-.26900005.32400036-.48799992.5720005-.65600014.2479992-.16799974.54299928-.25199985.88399983-.25199985.30999947 0 .57899952.0710001.80799961.21400022.2290001.14299965.40499974.33799982.52999974.58500004.125.24699974.18700027.52799988.18700027.8429997h-3.4279995v.74h4.29999924v-.36299991c0-.5209999-.06899929-.95799994-.20699978-1.31400013-.13799953-.35599995-.3239994-.64199972-.55599975-.85899973-.23200035-.217-.48999977-.37400007-.77299977-.4710002-.28299999-.09700012-.57000064-.14499997-.86100006-.14499997-.50400066 0-.94400024.12300014-1.32000065.36899995-.37599945.2460003-.67000007.5869999-.8789997 1.02400017-.20900012.4369998-.31400014.94099999-.31400014 1.51199985 0 .5710001.10500002 1.07200002.31400013 1.5020001.20899964.42999994.50800038.76399996.89700032 1.00199995.38899994.238.85199928.358 1.38899994.358.37800026 0 .71799945-.059 1.0209999-.176zM366.88800561 266.9220047h1.69999993c.49399996 0 .8540001.11499977 1.08200026.34399986.22799969.2290001.342.50600004.342.83300019 0 .26099968-.06599998.48899984-.19500017.68300008-.13000011.19399977-.3039999.34299994-.52300024.44999981-.21899986.10699988-.46399974.15999985-.7349999.15999985h-1.67099988v-2.46999979zm0 3.25399995h1.83099997c.32400012 0 .60500002.06599998.84200001.19499993.237.13000012.421.30100012.54899979.5150001.12800026.214.19200039.44700003.19200039.699 0 .32699991-.12400007.6049999-.37200022.834-.24800014.22899997-.66699982.34299993-1.25499988.34299993h-1.78700006v-2.58599996zm1.78700006 3.38499999c.58599973 0 1.06100011-.087 1.42699981-.261.36600018-.174.6340003-.411.80299998-.70900003.16900014-.29799998.25400018-.63300002.25400018-1.00599992 0-.39200008-.07700014-.7240001-.23199987-.995-.15500021-.27100015-.34800005-.4790001-.57800007-.62400008-.23000002-.14499998-.45800018-.2249999-.68599987-.24v-.07299996c.21299982-.0580001.41099977-.14699984.59399986-.26800013.18300009-.12099981.32999993-.28599977.44299984-.49399996.11299992-.2079997.16900015-.47200012.16900015-.79199981 0-.36299992-.08200026-.69400025-.24700022-.99300004-.16499996-.29900026-.41499996-.5380001-.75199985-.71600008-.3369999-.17799997-.76399994-.2670002-1.28200007-.2670002h-2.5999999v7.4380002h2.68700003z"/>
      </g>
      <g style="display:block">
        <path fill="#646B80" d="M501.93999481 274.29401367c.35499954-.138.65299988-.331.89500046-.57999997.24100113-.24900002.41400146-.53700006.51600265-.86699999l-.97200012-.273c-.0850029.227-.20600128.41699994-.36200332.569-.15599823.15199996-.34199906.26599998-.55599976.34099997-.21500015.07499998-.45399857.11299997-.7179985.11299997-.40599823 0-.7630005-.088-1.0699997-.26599997-.3069992-.17799997-.54600143-.43799996-.71800232-.77999997-.17199707-.34200001-.25799942-.76099992-.25799942-1.25500012v-.57999992c0-.36099982.07900238-.69900012.23500061-1.01400018.15600205-.31500005.38000107-.57200002.67100144-.76900005.29100036-.19699955.63599777-.296 1.03699874-.296.36400223 0 .68000031.08300018.94800187.2510004.26799774.16799974.47699737.3959999.62299728.68599987.1459999.28999996.21900177.61999989.21900177.98899984h-4.0229988v.8690002h5.04599761v-.42600012c0-.61100006-.08099747-1.12499976-.24300003-1.54299998-.16199875-.41799975-.3789978-.75299978-.65200043-1.00699997-.2729988-.25400019-.57600021-.4380002-.90799713-.55200005-.33200073-.11399984-.66900253-.171-1.01000214-.171-.5909996 0-1.10699844.14499998-1.54899978.43300009-.44200134.2880001-.78499985.68900013-1.03099823 1.20200014-.2460022.51300001-.3690033 1.10399985-.3690033 1.77399993 0 .67099976.1230011 1.2579999.3690033 1.76199984.24599838.50400007.59700012.89700002 1.05299759 1.17700005.45600128.28.99900055.419 1.63000107.419.44300079 0 .84199905-.068 1.1969986-.206zM495.23099518 274.23001367c.36500168-.18.6590004-.42500001.88199997-.73299998.22299957-.30799997.3619995-.65600002.41900253-1.04200006h-1.00500107c-.06299972.23900008-.16799927.444-.31600189.61400008-.1479988.16999996-.32799911.30099994-.54100037.39199996-.21299743.09100003-.4509964.13599998-.71199798.13599998-.39799881 0-.74300003-.10399997-1.03699875-.31099993-.29400253-.20700001-.52200317-.49900007-.68200302-.87400007-.1609993-.37499988-.24099732-.81499994-.24099732-1.32099998 0-.49399996.08199692-.92499995.24499894-1.29299998.1629982-.36800003.39199829-.6539998.68600082-.85699988.29399872-.20300007.63699722-.30400037 1.02899933-.30400037.4430008 0 .79600143.11500024 1.0589981.34700012.2630005.23200035.43300248.49700021.51000214.79500007h1.00500107c-.05700302-.40899992-.20300293-.7670002-.43900299-1.07399988-.23600006-.30700016-.5379982-.546-.90699768-.71600008-.36899948-.17000007-.78499985-.25600004-1.24500275-.25600004-.5909996 0-1.10699844.14499998-1.54899978.43300009-.44199753.2880001-.78499985.6869998-1.03099823 1.19700002-.24599839.50999976-.36800003 1.09699989-.36800003 1.76199985 0 .65300012.11899948 1.23500013.3580017 1.74300003.23899842.50900006.57899857.90800005 1.02199936 1.19800004.44299698.29000001.97100068.43400002 1.58499909.43400002.4829979 0 .90800094-.09 1.2729988-.27000001zM489.46899796 266.52701378c.14099884-.1329999.21099853-.29300022.21099853-.48099995 0-.18799972-.0699997-.34800052-.21099853-.48200035-.14100266-.13299942-.30900193-.1999998-.50500107-.1999998-.19599915 0-.36400223.06700038-.50500107.1999998-.14099884.13399983-.21099854.29400063-.21099854.48200035 0 .18799973.0699997.34800005.21099854.48099995.14099884.13399982.30900192.20099974.50500107.20099974.19599914 0 .36399841-.06699992.50500107-.20099974zm-.0110016 7.8369999v-6.54500008h-1.00500106v6.54500007h1.00500107zM482.8449955 273.25201368c-.28999901-.23000002-.50499916-.53299999-.6439991-.90799999-.13899994-.375-.20800018-.78100014-.20800018-1.2190001 0-.43700004.06900024-.84500003.20800018-1.22299981.13899994-.37800026.35400009-.68300009.6439991-.9159999.29000091-.23300027.6590004-.34900044 1.1079998-.34900044.44900131 0 .8180008.11600017 1.1080017.34900045.29000092.2329998.50399781.53799963.64299775.91599989.13899994.37799978.20899963.78599977.20899963 1.22299981 0 .43799996-.06999969.8440001-.20899963 1.2190001-.13899994.375-.35299683.67799997-.64299774.908-.29000092.22999995-.6590004.34499996-1.10800171.34499996-.4489994 0-.81799889-.115-1.1079998-.34499997zm2.6610012.82599998c.4449997-.28099996.79100037-.67399997 1.04000092-1.17999995.24899673-.50600004.37299728-1.097.37299728-1.77300012 0-.68199992-.12400055-1.27599978-.37299728-1.78500009-.24900055-.5079999-.59500122-.9039998-1.04000092-1.18499994-.4449997-.28099966-.9620018-.42199993-1.5530014-.42199993-.5909996 0-1.1079998.14100027-1.5529995.42199993-.4449997.28100014-.79100036.67700005-1.039999 1.18499994-.24900055.5090003-.3730011 1.10300017-.3730011 1.78500009 0 .67600012.12400055 1.26700008.3730011 1.77300012.24899864.50599998.5949993.89899999 1.039999 1.17999995.4449997.28100001.9619999.42200002 1.5529995.42200002.5909996 0 1.1080017-.141 1.5530014-.42200002zM473.17999649 265.63701344l3.20499992 8.72700023h1.0909996l3.20400048-8.72700023h-1.1079998l-2.59100151 7.34600019h-.10199928l-2.5909996-7.3460002h-1.10799981zM465.2049961 276.65701365c.24300004-.10800004.45600034-.27399992.6409998-.49699997.18500042-.22300005.34000016-.50300003.46500016-.84100002l2.77800083-7.50000006h-1.09100056l-1.80700016 5.21500003h-.06799984l-1.80700016-5.21500003h-1.09000015l2.42000007 6.57900007-.18799972.51100002c-.1220007.33199996-.25600052.57399994-.40200043.72299999-.1459999.14900005-.31299972.232-.50099945.24899995-.18800068.01700008-.40400028-.00599992-.64800072-.06799996l-.25500011.88600004c.0510006.02600002.1430006.05200005.27700043.079.13300037.02699995.28600025.04099989.45600032.04099989.3039999 0 .57699967-.0539999.8199997-.16199995zM453.20299613 274.36401367h.98800004v-6.63100004h.08599997l2.72699976 6.63100004h.954l2.72800016-6.63100004h.08500003v6.63100004h.98900032v-8.72700023h-1.26200008l-2.96600008 7.2440002h-.10200024l-2.96599984-7.2440002h-1.26100004v8.72700023z"/>
      </g>
      <g style="display:block">
        <path fill="#FFF" d="M647.72187042 559.48366547c.24399567.58500671.0099945 2.8010025-1.28300476 3.31500244-1.29299927.51300049-2.94400024 0-2.94400024 0l-2.99700165-5.99399567-5.17899323 5.17999268v-23.3919983l15.86599732 15.86600495h-5.91100311c.29000091.55599976 2.13800048 4.28199768 2.44800567 5.0249939z"/>
        <path d="M636.70886993 541.94866943v16.6800003l4.16999817-4.16999816 3.47499848 6.94999695s.94000244.30000305 1.38999939 0c.45000457-.30000305.89700317-.90399933.6949997-1.3899994-.95600129-2.29399871-3.47499848-6.94999694-3.47499848-6.94999694h4.86499786l-11.11999512-11.12000275z"/>
      </g>
    </g>
  </g>
</svg>
