<svg width="185" height="56" viewBox="0 0 185 56" fill="none" xmlns="http://www.w3.org/2000/svg">
<path d="M19.9164 10.6751V25.3804H6.41136V10.6751H0V45.7763H6.41136V31.549H19.9164V45.7763H26.3277V10.6751H19.9164ZM46.8464 34.4306C46.8464 35.8374 46.2876 37.1866 45.2928 38.1813C44.2981 39.1761 42.9489 39.7349 41.5421 39.7349C40.1353 39.7349 38.7862 39.1761 37.7914 38.1813C36.7966 37.1866 36.2378 35.8374 36.2378 34.4306V19.3953H30.155V34.4306C30.155 37.4475 31.3535 40.3408 33.4867 42.4741C35.62 44.6074 38.5134 45.8059 41.5303 45.8059C44.5472 45.8059 47.4405 44.6074 49.5738 42.4741C51.7071 40.3408 52.9056 37.4475 52.9056 34.4306V19.3953H46.8464V34.4306ZM91.905 20.9448C91.905 17.8635 93.943 16.8867 96.1763 16.8867C97.9775 16.8867 100.354 18.2557 101.91 19.9177L105.893 15.2246C103.905 12.5355 99.8704 10.6751 96.5685 10.6751C89.9722 10.6751 85.2021 14.5394 85.2021 20.9448C85.2021 32.8292 99.7268 29.0582 99.7268 35.7093C99.7268 37.7591 97.7348 39.5721 95.4541 39.5721C91.8577 39.5721 90.6914 37.8139 89.0398 35.9535L84.6205 40.5489C87.4473 44.021 90.9342 45.7822 95.1122 45.7822C101.379 45.7822 106.419 41.872 106.419 35.7596C106.419 22.5654 91.8947 26.665 91.8947 20.9448M181.765 40.17C178.171 40.17 177.15 38.6145 177.15 36.2332V25.6941H182.736V20.3543H177.15V13.3095L170.983 16.0771V37.543C170.983 43.0338 174.772 45.8014 179.967 45.8014C180.782 45.8162 181.597 45.7511 182.4 45.6075L183.903 40.0694C183.225 40.1153 182.446 40.1626 181.765 40.1626M69.9566 39.6787C69.0406 39.6921 68.131 39.5232 67.2808 39.1819C66.4306 38.8407 65.6567 38.3337 65.0042 37.6907C64.3516 37.0476 63.8334 36.2812 63.4797 35.4361C63.126 34.591 62.9439 33.684 62.9439 32.7678C62.9439 31.8517 63.126 30.9446 63.4797 30.0995C63.8334 29.2544 64.3516 28.488 65.0042 27.8449C65.6567 27.2019 66.4306 26.695 67.2808 26.3537C68.131 26.0124 69.0406 25.8435 69.9566 25.8569C71.7897 25.8569 73.5477 26.5851 74.8439 27.8813C76.1401 29.1775 76.8682 30.9355 76.8682 32.7685C76.8682 34.6016 76.1401 36.3596 74.8439 37.6558C73.5477 38.952 71.7897 39.6787 69.9566 39.6787ZM69.9936 19.5714C66.9818 19.5714 64.8802 20.4446 62.8482 22.4396V10.8867H56.7565V32.3009C56.7565 40.3165 62.5522 45.8073 69.0642 45.8073C76.2896 45.8073 82.6447 40.2189 82.6447 32.6931C82.6447 25.2605 76.7957 19.5743 69.9936 19.5743M130.363 32.2979C130.376 33.214 130.207 34.1235 129.866 34.9738C129.525 35.824 129.018 36.5979 128.375 37.2504C127.732 37.9029 126.965 38.4211 126.12 38.7748C125.275 39.1285 124.368 39.3106 123.452 39.3106C122.536 39.3106 121.629 39.1285 120.784 38.7748C119.939 38.4211 119.172 37.9029 118.529 37.2504C117.886 36.5979 117.379 35.824 117.038 34.9738C116.697 34.1235 116.528 33.214 116.541 32.2979C116.541 30.4648 117.269 28.7068 118.565 27.4107C119.862 26.1145 121.62 25.3863 123.453 25.3863C125.286 25.3863 127.044 26.1145 128.34 27.4107C129.636 28.7068 130.363 30.4648 130.363 32.2979ZM136.13 32.3719C136.13 24.8328 129.789 19.2576 122.551 19.2576C116.039 19.2576 110.244 24.7484 110.244 32.7656V54.1915H116.334V42.6224C118.364 44.6145 120.469 45.4906 123.478 45.4906C130.278 45.4906 136.127 39.8074 136.127 32.3719" fill="#33475B"/>
<path d="M153.71 39.0822C152.807 39.0955 151.911 38.9292 151.073 38.593C150.235 38.2567 149.472 37.7572 148.829 37.1235C148.186 36.4898 147.675 35.7345 147.327 34.9016C146.978 34.0688 146.799 33.1749 146.799 32.272C146.799 31.3691 146.978 30.4753 147.327 29.6424C147.675 28.8095 148.186 28.0543 148.829 27.4206C149.472 26.7869 150.235 26.2874 151.073 25.9511C151.911 25.6148 152.807 25.4485 153.71 25.4618C155.499 25.4882 157.205 26.2173 158.461 27.4916C159.717 28.7659 160.42 30.483 160.42 32.272C160.42 34.061 159.717 35.7782 158.461 37.0525C157.205 38.3268 155.499 39.0559 153.71 39.0822ZM155.748 19.1614V13.1023C156.548 12.7285 157.226 12.1349 157.702 11.3908C158.178 10.6466 158.433 9.78252 158.437 8.89912V8.76C158.434 7.52556 157.942 6.34255 157.069 5.46953C156.197 4.59651 155.014 4.10447 153.779 4.10096H153.637C152.403 4.10408 151.219 4.59595 150.346 5.46901C149.473 6.34207 148.981 7.5253 148.978 8.76V8.9006C148.982 9.784 149.237 10.6481 149.713 11.3923C150.189 12.1364 150.867 12.73 151.667 13.1038V19.16C149.366 19.5118 147.199 20.4655 145.385 21.9246L128.756 8.98496C128.874 8.55872 128.938 8.11916 128.944 7.67664C128.945 6.63714 128.638 5.62055 128.062 4.75545C127.486 3.89035 126.666 3.21559 125.706 2.8165C124.746 2.41742 123.689 2.31194 122.67 2.51341C121.65 2.71488 120.713 3.21424 119.977 3.94835C119.241 4.68245 118.739 5.61832 118.535 6.63759C118.331 7.65687 118.434 8.71376 118.83 9.67461C119.227 10.6355 119.9 11.4571 120.763 12.0356C121.627 12.6141 122.643 12.9235 123.682 12.9247C124.595 12.9212 125.491 12.6772 126.28 12.2173L142.631 24.9468C141.158 27.1687 140.389 29.7831 140.426 32.4486C140.462 35.114 141.302 37.7065 142.835 39.8874L137.859 44.8616C137.459 44.7348 137.043 44.6675 136.623 44.6618C135.769 44.6618 134.933 44.9152 134.223 45.39C133.513 45.8648 132.959 46.5396 132.632 47.3291C132.305 48.1185 132.219 48.9873 132.386 49.8253C132.553 50.6634 132.965 51.4331 133.569 52.0373C134.173 52.6414 134.943 53.0527 135.781 53.2192C136.62 53.3858 137.488 53.3 138.278 52.9728C139.067 52.6456 139.742 52.0916 140.216 51.381C140.691 50.6704 140.944 49.835 140.943 48.9805C140.938 48.5613 140.87 48.1454 140.742 47.7462L145.665 42.8237C147.05 43.8818 148.63 44.6567 150.314 45.1042C151.999 45.5516 153.755 45.6629 155.482 45.4316C157.21 45.2003 158.875 44.631 160.382 43.7561C161.89 42.8813 163.21 41.718 164.268 40.3328C165.666 38.5035 166.564 36.342 166.873 34.0608C167.183 31.7795 166.894 29.457 166.034 27.3213C165.175 25.1855 163.775 23.3101 161.971 21.8792C160.168 20.4484 158.023 19.5127 155.748 19.1614Z" fill="#FF7A59"/>
</svg>
